<?xml version="1.0" standalone="no"?>
<!DOCTYPE svg PUBLIC "-//W3C//DTD SVG 1.1//EN" "http://www.w3.org/Graphics/SVG/1.1/DTD/svg11.dtd" >
<svg>
<metadata>
Created by FontForge 20090622 at Thu Jun  2 10:55:27 2016
 By deploy user
Copyright 2010 URW++ Design &#38; Development Hamburg
</metadata>
<defs>
<font id="Helserif-Boo" horiz-adv-x="500" >
  <font-face 
    font-family="HelserifBoo"
    font-weight="400"
    font-stretch="normal"
    units-per-em="1000"
    panose-1="0 0 5 0 0 0 0 0 0 0"
    ascent="666"
    descent="-334"
    x-height="480"
    cap-height="666"
    bbox="-133 -391 1025 902"
    underline-thickness="75"
    underline-position="-39"
    unicode-range="U+0020-U+FB02"
  />
<missing-glyph horiz-adv-x="213" 
 />
    <glyph glyph-name="fi" unicode="fi" horiz-adv-x="487" 
d="M171 410v-307q0 -21 1 -24v-2q0 -2 3 -3q7 -5 19 -5h34v-69h-204v69h29q17 0 22 6t5 27v308h-61v73h61v96q0 52 26 75q14 12 39 19.5t42 3.5h3h66v-74h-35q-29 0 -39.5 -11t-10.5 -42v-66h234v-386q0 -19 3 -24.5t14 -5.5h38v-68h-203v68h36q11 0 15 6.5t4 23.5v289
q0 14 -5 18.5t-21 4.5h-115z" />
    <glyph glyph-name="fl" unicode="fl" horiz-adv-x="487" 
d="M406 676v-575q0 -24 2 -28t15 -4h34v-69h-200v69h32q14 0 18.5 7t4.5 30v470q0 15 -6.5 21t-22.5 6h-62q-29 0 -39.5 -11t-10.5 -42v-66h85v-73h-85v-308q0 -21 1 -24v-2q0 -2 3 -3q7 -5 19 -5h34v-69h-204v69h29q17 0 22 6t5 27v308h-61v73h61v96q0 51 26 74t84 23h216z
" />
    <glyph glyph-name=".notdef" horiz-adv-x="213" 
 />
    <glyph glyph-name=".null" horiz-adv-x="0" 
 />
    <glyph glyph-name="nonmarkingreturn" horiz-adv-x="333" 
 />
    <glyph glyph-name="space" unicode=" " horiz-adv-x="213" 
 />
    <glyph glyph-name="exclam" unicode="!" horiz-adv-x="256" 
d="M96 666h97v-223l-27 -290h-43l-27 284v229zM96 0v101h97v-101h-97z" />
    <glyph glyph-name="quotedbl" unicode="&#x22;" horiz-adv-x="393" 
d="M290 392h-48l-17 274h81zM151 392h-48l-17 274h82z" />
    <glyph glyph-name="numbersign" unicode="#" horiz-adv-x="566" 
d="M361 402h-125l-20 -125h126zM502 277v-58h-109l-34 -219h-59l33 219h-125l-35 -219h-58l33 219h-107v58h116l19 125h-107v58h116l32 206h59l-32 -206h126l32 206h60l-32 -206h99v-58h-108l-19 -125h100z" />
    <glyph glyph-name="dollar" unicode="$" horiz-adv-x="600" 
d="M327 274v-203q120 12 120 105q0 38 -23.5 57t-96.5 41zM276 372v185q-102 -19 -102 -95q0 -35 23.5 -56t78.5 -34zM61 213h92q6 -72 32.5 -103t90.5 -39v218q-86 22 -119 42q-71 42 -71 124q0 46 25.5 87t66.5 61q35 18 98 27v41h53v-40q182 -18 198 -176h-92
q-14 56 -35.5 76t-72.5 25v-197q87 -21 121 -37q91 -39 91 -139q0 -99 -86 -152q-45 -28 -126 -33v-76h-51v75q-100 5 -158.5 64t-56.5 152z" />
    <glyph glyph-name="percent" unicode="%" horiz-adv-x="722" 
d="M547 324q-46 0 -66 -51q-14 -39 -14 -91q0 -72 22 -116q18 -32 56 -32q41 0 59.5 33t18.5 107q0 80 -17.5 115t-58.5 35zM178 619q-79 0 -79 -145q0 -143 78 -143q40 0 59 36.5t19 114.5q0 71 -18.5 104t-58.5 33zM543 378q145 0 145 -203q0 -92 -37 -142.5t-104 -50.5
q-69 0 -107 51.5t-38 143.5q0 94 37.5 147.5t103.5 53.5zM201 0l264 666h58l-264 -666h-58zM173 673q71 0 109 -50t38 -143q0 -96 -37.5 -149t-105.5 -53t-106 52t-38 144q0 93 37.5 146t102.5 53z" />
    <glyph glyph-name="ampersand" unicode="&#x26;" horiz-adv-x="627" 
d="M241 457l30 -34q48 36 65 60t17 54q0 34 -21.5 54t-57.5 20q-35 0 -56 -18.5t-21 -49.5q0 -37 44 -86zM396 141l-153 180q-70 -44 -96 -75.5t-26 -69.5q0 -50 38 -83.5t96 -33.5q42 0 73.5 18t67.5 64zM321 364l113 -136q12 44 15 91h93q-5 -56 -12 -84.5t-29 -81.5
l40 -54q11 -15 31 -15h44v-85h-74q-31 0 -49 23l-42 54q-62 -58 -105 -74q-51 -19 -105 -19q-93 0 -153 53t-60 135q0 77 58 131q28 27 111 80q-48 49 -68 85t-20 73q0 61 45.5 100t116.5 39q78 0 126 -38.5t48 -102.5q0 -71 -71 -132q-10 -9 -42 -33q-3 -3 -11 -9z" />
    <glyph glyph-name="quotesingle" unicode="'" horiz-adv-x="196" 
d="M122 392h-48l-17 274h82z" />
    <glyph glyph-name="parenleft" unicode="(" horiz-adv-x="272" 
d="M161 665h72q-65 -132 -82 -178q-37 -105 -37 -227q0 -102 27.5 -193t95.5 -211h-69q-138 190 -138 410q0 110 29 198.5t102 200.5z" />
    <glyph glyph-name="parenright" unicode=")" horiz-adv-x="275" 
d="M104 -143h-70q66 125 80 164q45 116 45 248q0 88 -19 165t-64 167l-35 65h68q76 -107 103 -194q33 -108 33 -210q0 -191 -104 -352q-8 -13 -37 -53z" />
    <glyph glyph-name="asterisk" unicode="*" horiz-adv-x="476" 
d="M110 612l91 -53v107h73v-103l88 52l36 -63l-90 -53l92 -52l-36 -61l-90 52v-105h-72v102l-89 -52l-35 62l90 53l-93 52z" />
    <glyph glyph-name="plus" unicode="+" 
d="M9 374h208v195h65v-195h208v-65h-207v-195h-65v195h-209v65z" />
    <glyph glyph-name="comma" unicode="," horiz-adv-x="236" 
d="M68 -138v51q25 22 32.5 37.5t8.5 49.5h-40v103h99v-88q0 -118 -100 -153z" />
    <glyph glyph-name="hyphen" unicode="-" horiz-adv-x="365" 
d="M68 198v79h229v-79h-229z" />
    <glyph glyph-name="period" unicode="." horiz-adv-x="234" 
d="M68 0v103h98v-103h-98z" />
    <glyph glyph-name="slash" unicode="/" horiz-adv-x="333" 
d="M33 -38l211 704h56l-211 -704h-56z" />
    <glyph glyph-name="zero" unicode="0" horiz-adv-x="600" 
d="M301 594q-69 0 -111 -58q-46 -64 -46 -203q0 -147 42 -213q40 -61 112 -61q161 0 161 274q0 173 -69 230q-39 31 -89 31zM301 675q86 0 150 -49q46 -35 66 -80q38 -90 38 -209q0 -73 -12 -139.5t-32 -101.5q-32 -56 -87.5 -87t-122.5 -31q-122 0 -189 84t-67 273
q0 186 81 270q67 70 175 70z" />
    <glyph glyph-name="one" unicode="1" horiz-adv-x="600" 
d="M126 487v58q77 11 113 38.5t47 85.5h76v-559q0 -18 5 -23t24 -5h46v-82h-249v82h44q22 0 29 6.5t7 25.5v373h-142z" />
    <glyph glyph-name="two" unicode="2" horiz-adv-x="600" 
d="M530 0h-461q0 101 53.5 168.5t194.5 145.5q71 41 96.5 73.5t25.5 81.5q0 59 -34.5 92.5t-94.5 33.5q-64 0 -99 -35t-35 -99q0 -21 1 -33h-97q1 61 9.5 94t29.5 65q61 89 189 89q103 0 166 -56.5t63 -149.5q0 -130 -136 -205l-89 -49q-111 -62 -132 -125q0 -1 -4 -11h244
q11 0 18 8t7 21v28h85v-137z" />
    <glyph glyph-name="three" unicode="3" horiz-adv-x="600" 
d="M42 214h100q12 -73 33 -99q47 -58 135 -58q65 0 106 35t41 91q0 40 -21.5 71t-59.5 45q-24 8 -43.5 10t-91.5 2v75q38 -2 39 -2q68 0 106 28.5t38 78.5q0 47 -33.5 75.5t-89.5 28.5q-72 0 -109 -50q-24 -32 -27 -91h-96q6 64 23 102.5t52 68.5q58 51 157 51t160.5 -51
t61.5 -133q0 -53 -26.5 -87t-84.5 -54q56 -17 77 -32q66 -47 66 -141q0 -92 -65 -146t-177 -54q-149 0 -220 94q-22 29 -32.5 58.5t-18.5 83.5z" />
    <glyph glyph-name="four" unicode="4" horiz-adv-x="600" 
d="M139 235h212v278zM44 160v79l326 431h75v-434h104v-75h-104v-59q0 -19 19 -19h38v-83h-207v83h30q14 0 20 5.5t6 18.5v53h-307z" />
    <glyph glyph-name="five" unicode="5" horiz-adv-x="600" 
d="M53 195h98q12 -40 21.5 -59t25.5 -33q43 -38 103 -38q66 0 109 43t43 109q0 65 -41.5 106.5t-108.5 41.5q-45 0 -73.5 -13t-61.5 -50h-95l72 366h368v-140h-84v33q0 14 -4.5 18.5t-18.5 4.5h-188l-41 -175q76 40 138 40q102 0 169.5 -65.5t67.5 -165.5
q0 -102 -69.5 -167.5t-178.5 -65.5q-116 0 -185 69q-29 28 -43.5 59t-22.5 82z" />
    <glyph glyph-name="six" unicode="6" horiz-adv-x="600" 
d="M309 354q-61 0 -100.5 -39t-39.5 -100q0 -64 43 -110t103 -46t99 41t39 105q0 66 -40 107.5t-104 41.5zM537 480h-97q-16 59 -46.5 86t-81.5 27q-42 0 -76 -21t-51 -58q-13 -30 -19 -58.5t-11 -90.5q43 36 79.5 51t83.5 15q100 0 166 -65t66 -163q0 -99 -64.5 -162
t-165.5 -63q-70 0 -128 32.5t-90 90.5q-44 79 -44 222q0 171 65 261t189 90q67 0 121 -29t82 -79q16 -29 22 -86z" />
    <glyph glyph-name="seven" unicode="7" horiz-adv-x="600" 
d="M81 527v137h454v-69q-115 -99 -187 -258.5t-83 -336.5h-102q12 101 24.5 153t42.5 126q41 98 77.5 156t93.5 118l27 29h-242q-8 0 -14.5 -6t-6.5 -14v-35h-84z" />
    <glyph glyph-name="eight" unicode="8" horiz-adv-x="600" 
d="M299 597q-57 0 -90.5 -26t-33.5 -70q0 -46 35 -75.5t89 -29.5q53 0 87.5 29t34.5 74t-33 71.5t-89 26.5zM303 321q-69 0 -112 -37.5t-43 -97.5t41.5 -94t114.5 -34q71 0 111.5 33.5t40.5 92.5q0 61 -42.5 99t-110.5 38zM191 364q-37 12 -58 29q-51 41 -51 110
q0 76 60.5 124t155.5 48q98 0 157 -47.5t59 -127.5q0 -49 -23.5 -80t-82.5 -59q74 -22 108 -63t34 -110q0 -96 -66 -151.5t-181 -55.5q-138 0 -199 72q-51 59 -51 134q0 87 58 136q20 16 80 41z" />
    <glyph glyph-name="nine" unicode="9" horiz-adv-x="600" 
d="M291 595q-59 0 -98.5 -42.5t-39.5 -105.5t41 -106t100 -43q63 0 104 39.5t41 100.5q0 65 -43 111t-105 46zM72 170h95q17 -59 46.5 -85t79.5 -26q100 0 140 99q15 40 20 132q-46 -39 -82.5 -54.5t-85.5 -15.5q-97 0 -163.5 66t-66.5 163q0 98 66 162t169 64
q71 0 127.5 -32t88.5 -90q44 -79 44 -225q0 -157 -50 -236q-70 -114 -208 -114q-115 0 -180 80q-34 43 -40 112z" />
    <glyph glyph-name="colon" unicode=":" horiz-adv-x="237" 
d="M70 474h99v-102h-99v102zM68 0v103h98v-103h-98z" />
    <glyph glyph-name="semicolon" unicode=";" horiz-adv-x="234" 
d="M68 369v103h98v-103h-98zM68 -140v55q21 17 28 32.5t11 51.5h-38v106h96v-97q0 -53 -22 -87t-75 -61z" />
    <glyph glyph-name="less" unicode="&#x3c;" 
d="M490 580v-70l-397 -172l397 -169v-70l-481 202v72z" />
    <glyph glyph-name="equal" unicode="=" 
d="M9 299h481v-65h-481v65zM9 448h481v-65h-481v65z" />
    <glyph glyph-name="greater" unicode="&#x3e;" 
d="M9 99v70l397 172l-397 168v71l481 -202v-71z" />
    <glyph glyph-name="question" unicode="?" horiz-adv-x="478" 
d="M184 0v101h96v-101h-96zM280 156h-96q0 6 -1 11v2v2q0 57 14 89q13 30 26 47.5t50 54.5q52 50 68 75.5t16 57.5q0 44 -31.5 72.5t-81.5 28.5q-60 0 -89 -37t-32 -116h-92q2 90 31 135q61 98 185 98q93 0 149 -49.5t56 -131.5q0 -49 -19.5 -85.5t-72.5 -84.5
q-50 -46 -65 -73t-15 -74v-22z" />
    <glyph glyph-name="at" unicode="@" horiz-adv-x="698" 
d="M351 445q-51 0 -85 -40t-34 -99q0 -48 26 -77.5t67 -29.5q49 0 80 41.5t31 106.5q0 47 -22.5 72.5t-62.5 25.5zM579 132h59q-40 -49 -62.5 -69.5t-52.5 -36.5q-68 -36 -159 -36q-155 0 -256 96.5t-101 244.5t101 247t252 99q138 0 228.5 -81.5t90.5 -206.5
q0 -111 -73 -184q-32 -31 -73.5 -51t-75.5 -20q-23 0 -35.5 13.5t-12.5 37.5v5q-42 -52 -104 -52q-64 0 -103.5 45t-39.5 118q0 89 52 148.5t131 59.5q41 0 67.5 -16.5t45.5 -53.5l12 58h58l-48 -263q-5 -32 -5 -34q0 -17 17 -17q34 0 82 48q62 60 62 154q0 105 -78 176
t-194 71q-128 0 -214 -86t-86 -214q0 -127 86.5 -213t214.5 -86q63 0 111.5 22.5t102.5 76.5z" />
    <glyph glyph-name="A" unicode="A" horiz-adv-x="677" 
d="M229 275h214l-109 284zM9 0v83h32q20 0 25 12l177 451q7 20 7 25q0 12 -21 12h-32v83h186l214 -541q7 -16 9 -23q5 -12 10.5 -15.5t21.5 -3.5h29v-83h-210v83h31q15 0 19 2t4 8t-12 38l-28 71h-266l-30 -78q-11 -30 -11 -31q0 -10 32 -10h24v-83h-211z" />
    <glyph glyph-name="B" unicode="B" horiz-adv-x="635" 
d="M181 383h164q68 0 106.5 27t38.5 75q0 49 -39.5 75.5t-113.5 26.5h-156v-204zM181 83h202q67 0 98 25t31 80q0 121 -163 121h-168v-226zM30 0v83h34q14 0 18.5 10t4.5 38v407q0 32 -4 40.5t-19 8.5h-33v81h327q85 0 137 -27q38 -19 62 -61t24 -89q0 -52 -22 -81t-82 -58
q51 -18 71 -32q27 -19 43.5 -55.5t16.5 -77.5q0 -50 -24 -93.5t-65 -66.5q-47 -27 -138 -27h-351z" />
    <glyph glyph-name="C" unicode="C" horiz-adv-x="664" 
d="M538 607v59h81v-201h-87q-26 55 -41 72q-52 60 -142 60q-98 0 -157.5 -72.5t-59.5 -190.5q0 -122 59.5 -199t154.5 -77q90 0 143 64q18 22 27 49.5t15 77.5h98q-7 -69 -21 -108t-43 -71q-39 -43 -97 -67.5t-123 -24.5q-137 0 -225 98.5t-88 252.5q0 158 87 253t232 95
q56 0 94.5 -14.5t92.5 -55.5z" />
    <glyph glyph-name="D" unicode="D" horiz-adv-x="648" 
d="M182 82h142q96 0 145.5 64.5t49.5 189.5q0 120 -47 184t-136 64h-154v-502zM31 0v82h23q21 0 27.5 10t6.5 42v407q0 27 -5 35t-22 8h-29v82h290q158 0 231 -103q63 -87 63 -215q0 -173 -87 -271q-30 -34 -82.5 -55.5t-108.5 -21.5h-307z" />
    <glyph glyph-name="E" unicode="E" horiz-adv-x="596" 
d="M30 583v83h528v-137h-82v33q0 21 -40 21h-255v-195h335v-79h-335v-225h274q17 0 23.5 5.5t6.5 18.5v30h83v-138h-537v83h30q16 0 21 8.5t5 36.5v407q0 28 -5.5 38t-20.5 10h-31z" />
    <glyph glyph-name="F" unicode="F" horiz-adv-x="577" 
d="M29 0v81h30q19 0 23.5 10t4.5 50v404q0 23 -5.5 30t-22.5 7h-29v82h518v-137h-84v29q0 17 -8 21.5t-36 4.5h-238v-196h294v-79h-294v-205l-1 -16q3 -5 21 -5h33v-81h-206z" />
    <glyph glyph-name="G" unicode="G" horiz-adv-x="698" 
d="M546 605v61h83v-203h-93q-14 38 -25 56t-30 34q-57 46 -136 46q-73 0 -127 -43q-80 -65 -80 -216q0 -123 53 -200t155 -77q68 0 120.5 35.5t68.5 92.5q7 28 11 83h-197v84h295v-360h-66l-24 75q-28 -28 -46 -41q-69 -50 -165 -50q-134 0 -220 99.5t-86 255.5
q0 190 117 281q80 61 187 61q108 0 181 -55q6 -5 24 -19z" />
    <glyph glyph-name="H" unicode="H" horiz-adv-x="708" 
d="M28 584v82h206v-82h-33q-16 0 -19.5 -7.5t-3.5 -41.5v-146h347v153q0 24 -5.5 33t-20.5 9h-28v82h206v-82h-31q-27 0 -27 -32v-429q0 -25 5 -33t21 -8h31v-82h-206v82h29q26 0 26 41v188h-347v-192q0 -23 6 -31q4 -6 25 -6h25v-82h-206v82h26q19 0 24.5 9.5t5.5 42.5v390
q-1 49 -5 53q-9 7 -25 7h-26z" />
    <glyph glyph-name="I" unicode="I" horiz-adv-x="269" 
d="M30 583v83h206v-83h-27q-30 0 -30 -23v-423q0 -39 4.5 -47t24.5 -8h28v-82h-205v82h28q18 0 23 8t5 34v433q0 26 -29 26h-28z" />
    <glyph glyph-name="J" unicode="J" horiz-adv-x="492" 
d="M5 218h97q4 -94 23 -124t75 -30q58 0 81 28.5t23 100.5v348q0 28 -5 35.5t-23 7.5h-29v82h210v-82h-35q-20 0 -20 -38v-343q0 -97 -28 -142q-48 -76 -169 -76q-125 0 -168 81q-23 42 -32 152z" />
    <glyph glyph-name="K" unicode="K" horiz-adv-x="665" 
d="M31 0v82h31q16 0 20 9t4 50v387q0 38 -4 47t-20 9h-30v82h208v-82h-35q-14 0 -18.5 -8.5t-4.5 -34.5v-193l207 200q24 24 24 28q0 8 -24 8h-32v82h250v-82h-34q-25 0 -49 -23l-172 -164l220 -282q19 -24 25.5 -28.5t25.5 -4.5h36v-82h-241v82h37q21 0 21 8q0 1 -26 36
l-161 213l-107 -103v-110q0 -27 5 -35.5t22 -8.5h30v-82h-208z" />
    <glyph glyph-name="L" unicode="L" horiz-adv-x="541" 
d="M32 84h30q11 0 22 8q1 3 2 14v44v384q0 32 -4.5 41.5t-19.5 9.5h-31v81h203v-81h-25q-29 0 -29 -25v-476h230q28 0 28 28v27h82v-139h-488v84z" />
    <glyph glyph-name="M" unicode="M" horiz-adv-x="819" 
d="M28 82h27q19 0 23 6t4 36v425q0 22 -5 28.5t-22 6.5h-26v82h163l210 -518l213 518h163v-82h-34q-19 0 -19 -30v-430q1 -31 4 -36.5t21 -5.5h28v-82h-203v82h29q17 0 22.5 8t5.5 30v343l-193 -463h-71l-191 463v-352q0 -29 27 -29h28v-82h-204v82z" />
    <glyph glyph-name="N" unicode="N" horiz-adv-x="690" 
d="M29 584v82h152l331 -506v367q0 42 -3.5 49.5t-22.5 7.5h-29v82h203v-81h-30q-26 0 -26 -31v-554h-92l-336 510v-389q0 -23 4.5 -30.5t20.5 -7.5h31v-83h-202v83h28q16 0 22 6.5t6 23.5v414q0 41 -4 49t-24 8h-29z" />
    <glyph glyph-name="O" unicode="O" horiz-adv-x="709" 
d="M351 600q-110 0 -173 -94q-52 -80 -52 -177q0 -114 64.5 -192.5t157.5 -78.5q101 0 166 76t65 195q0 132 -78 212q-57 59 -150 59zM353 679q165 0 254 -119q74 -98 74 -229q0 -76 -26.5 -146t-71.5 -115q-91 -89 -232 -89q-66 0 -127 23.5t-100 63.5q-95 100 -95 262
q0 137 71 231q89 118 253 118z" />
    <glyph glyph-name="P" unicode="P" horiz-adv-x="628" 
d="M179 271v-134q0 -39 4.5 -47t24.5 -8h28v-82h-205v82h28q18 0 23 8t5 34v433q0 26 -29 26h-28v83h193q190 0 222 -8q64 -16 102.5 -68t38.5 -124q0 -86 -53.5 -140.5t-138.5 -54.5h-215zM179 582v-234h185q127 0 127 113q0 57 -36.5 89t-101.5 32h-174z" />
    <glyph glyph-name="Q" unicode="Q" horiz-adv-x="710" 
d="M404 194l97 -77q43 52 60 97t17 107q0 122 -63.5 199.5t-164.5 77.5q-99 0 -160 -73t-61 -192q0 -116 60.5 -194t150.5 -78q29 0 92 12l-75 60zM596 81h100v-81h-164l-26 14q-82 -32 -155 -32q-117 0 -201 67q-120 93 -120 284q0 155 87.5 250t230.5 95
q145 0 236.5 -95.5t91.5 -246.5q0 -58 -15.5 -118t-39.5 -98z" />
    <glyph glyph-name="R" unicode="R" horiz-adv-x="649" 
d="M180 584v-230h183q67 0 102.5 30.5t35.5 87.5q0 53 -30.5 82.5t-84.5 29.5h-206zM29 584v82h365q89 0 147 -51.5t58 -131.5q0 -63 -25.5 -100.5t-87.5 -68.5q43 -19 57.5 -35.5t19.5 -52.5l14 -105q5 -38 22 -38h38v-83h-81h-3q-43 0 -57 14.5t-15 60.5
q0 113 -25.5 157.5t-89.5 44.5h-186v-151q0 -28 5 -35.5t24 -7.5h28v-83h-208v83h37q14 0 17 8.5t3 50.5v410q0 32 -26 32h-31z" />
    <glyph glyph-name="S" unicode="S" horiz-adv-x="595" 
d="M26 0v228h94q17 -87 48 -118q53 -51 139 -51q67 0 111 34t44 86q0 41 -27.5 66.5t-89.5 42.5l-121 33q-86 23 -123 65q-42 46 -42 111q0 46 22.5 86.5t57.5 60.5q61 33 157 33q46 0 80.5 -11.5t80.5 -42.5v43h84v-205h-89q-13 63 -38 90q-39 44 -132 44q-62 0 -95.5 -24
t-33.5 -68q0 -72 116 -101l92 -23q96 -23 140 -60q26 -23 41.5 -60t15.5 -77q0 -91 -66.5 -146.5t-174.5 -55.5q-56 0 -107 14q-44 12 -103 61v-55h-81z" />
    <glyph glyph-name="T" unicode="T" horiz-adv-x="557" 
d="M22 527v141h513v-140h-84v31q0 15 -6.5 20t-26.5 5h-90v-464q0 -26 2.5 -32t15.5 -6h36v-82h-206v82h32q13 0 17.5 8t4.5 34v460h-100q-25 0 -25 -25v-32h-83z" />
    <glyph glyph-name="U" unicode="U" horiz-adv-x="672" 
d="M22 666h206v-81h-29q-24 0 -24 -32v-309q0 -79 16 -111q16 -30 55.5 -48t90.5 -18q74 0 112.5 37.5t38.5 108.5v323q0 31 -5 39.5t-23 8.5h-27v82h206v-81h-29q-26 0 -26 -39v-338q0 -106 -66 -164.5t-186 -58.5q-149 0 -212 83q-42 56 -42 155v324q0 21 -7 29t-24 8h-25
v82z" />
    <glyph glyph-name="V" unicode="V" horiz-adv-x="639" 
d="M7 666h209v-82h-29q-22 0 -22 -13q0 -9 6 -26l149 -437l146 437q6 17 6 26q0 13 -19 13h-34v82h210v-82h-35q-14 0 -19 -6t-14 -33l-190 -545h-102l-194 552q-8 20 -15.5 26.5t-26.5 5.5h-26v82z" />
    <glyph glyph-name="W" unicode="W" horiz-adv-x="904" 
d="M9 583v83h203v-82h-25q-28 0 -28 -17q0 -8 7 -35l104 -387l133 521h97l137 -521l100 387q8 35 8 39q0 7 -5 9.5t-22 2.5h-25v83h204v-82h-29q-18 0 -24 -5.5t-12 -27.5l-145 -551h-97l-137 522l-134 -522h-95l-153 556q-4 17 -9 22t-17 5h-36z" />
    <glyph glyph-name="X" unicode="X" horiz-adv-x="603" 
d="M12 82h43q12 0 20.5 7t23.5 29l146 220l-157 224q-12 17 -18 20t-27 3h-30v81h230v-82h-44q-11 0 -11 -8q0 -6 11 -22l97 -141l97 141q10 14 10 21q0 10 -18 10h-35v81h224v-81h-34q-14 0 -22.5 -5.5t-19.5 -21.5l-148 -217l168 -252q5 -7 33 -7h34v-82h-227v82h43
q9 0 9 10q0 8 -14 28l-100 142l-88 -133q-20 -30 -20 -36q0 -11 14 -11h40v-82h-230v82z" />
    <glyph glyph-name="Y" unicode="Y" horiz-adv-x="591" 
d="M9 584v82h218v-82h-34q-21 0 -21 -12q0 -4 8 -17l116 -186l112 185q10 17 10 20q0 10 -19 10h-32v82h213v-82h-25q-19 0 -27 -5.5t-22 -28.5l-163 -266v-175q0 -16 5 -21.5t19 -5.5h32v-82h-205v82h34q11 0 15.5 6.5t4.5 22.5v173l-171 276q-15 24 -32 24h-36z" />
    <glyph glyph-name="Z" unicode="Z" horiz-adv-x="563" 
d="M14 0v83l389 501h-262q-14 0 -18.5 -7t-4.5 -26v-24h-82v139h481v-77l-394 -508h306q28 0 28 32v23h81v-136h-524z" />
    <glyph glyph-name="bracketleft" unicode="[" horiz-adv-x="290" 
d="M271 666v-66h-106v-703h106v-66h-184v835h184z" />
    <glyph glyph-name="backslash" unicode="\" horiz-adv-x="333" 
d="M300 -38h-56l-211 704h56z" />
    <glyph glyph-name="bracketright" unicode="]" horiz-adv-x="290" 
d="M204 666v-835h-184v66h107v703h-107v66h184z" />
    <glyph glyph-name="asciicircum" unicode="^" 
d="M93 378h-73l192 288h76l192 -288h-73l-158 230z" />
    <glyph glyph-name="underscore" unicode="_" 
d="M500 -75v-75h-500v75h500z" />
    <glyph glyph-name="grave" unicode="`" horiz-adv-x="257" 
d="M33 668h119l72 -140h-70z" />
    <glyph glyph-name="a" unicode="a" horiz-adv-x="519" 
d="M353 246l-120 -29q-70 -17 -94.5 -34.5t-24.5 -51.5q0 -37 29.5 -61t74.5 -24q58 0 96.5 38t38.5 96v66zM129 322h-79q0 68 16 96q44 79 180 79q93 0 141.5 -34.5t48.5 -99.5v-269q0 -15 6 -20t23 -5h28v-69h-79q-22 0 -32 10.5t-21 44.5q-50 -41 -86 -56t-84 -15
q-74 0 -119.5 38.5t-45.5 100.5q0 116 144 146l129 26q33 7 46.5 19.5t13.5 35.5q0 35 -29.5 56t-78.5 21q-68 0 -94.5 -22.5t-27.5 -82.5z" />
    <glyph glyph-name="b" unicode="b" horiz-adv-x="551" 
d="M303 420q-64 0 -104 -49t-40 -127q0 -103 52 -149q40 -35 92 -35q62 0 94.5 45t32.5 130q0 88 -33 136.5t-94 48.5zM26 66h26q17 0 23.5 7t6.5 25v470q0 27 -23 27h-32v68h147v-241q18 18 36 34q46 38 107 38q90 0 149 -71.5t59 -180.5q0 -117 -57.5 -186.5t-153.5 -69.5
q-52 0 -83 16.5t-65 63.5v-66h-140v66z" />
    <glyph glyph-name="c" unicode="c" horiz-adv-x="510" 
d="M406 480h69v-158h-83q-20 50 -50.5 73.5t-76.5 23.5q-68 0 -105.5 -48.5t-37.5 -136.5q0 -71 22 -112q16 -30 49 -47.5t71 -17.5q50 0 77.5 26.5t40.5 87.5h93q-5 -44 -15 -69t-31 -50q-59 -69 -164 -69q-109 0 -174.5 68.5t-65.5 183.5q0 116 65.5 187.5t171.5 71.5
q44 0 75 -12.5t69 -45.5v44z" />
    <glyph glyph-name="d" unicode="d" horiz-adv-x="553" 
d="M254 419q-60 0 -95.5 -48.5t-35.5 -130.5q0 -85 35 -134.5t95 -49.5q62 0 102.5 51t40.5 130q0 68 -22 112q-16 31 -50 50.5t-70 19.5zM383 425v149q0 22 -27 22h-30v70h149v-561q0 -23 4.5 -30t18.5 -7h31v-68h-140v60q-71 -78 -152 -78q-90 0 -150 73.5t-60 183.5
q0 111 60 184t152 73q44 0 76 -15.5t68 -55.5z" />
    <glyph glyph-name="e" unicode="e" horiz-adv-x="505" 
d="M114 283h271q-12 53 -27 80q-15 28 -45.5 44.5t-64.5 16.5q-67 0 -104 -53q-19 -28 -30 -88zM480 212h-362q8 -64 24 -95q15 -29 47.5 -46.5t72.5 -17.5q44 0 71 21t49 70h88q-23 -71 -57 -106q-55 -58 -154 -58q-107 0 -170.5 69.5t-63.5 186.5q0 116 62 186.5t164 70.5
q69 0 123.5 -35.5t82.5 -99.5q20 -48 23 -146z" />
    <glyph glyph-name="f" unicode="f" horiz-adv-x="271" 
d="M18 410v73h62v96q0 52 26 75q14 12 39 19.5t42 3.5h3h66v-74h-35q-29 0 -39.5 -11t-10.5 -42v-66h85v-73h-85v-308q0 -26 4 -29q8 -5 19 -5h34v-69h-204v69h29q17 0 22 6.5t5 26.5v308h-62z" />
    <glyph glyph-name="g" unicode="g" horiz-adv-x="551" 
d="M255 421q-43 0 -67 -12t-43 -44q-29 -53 -29 -109q0 -76 41 -132q30 -43 100 -43q65 0 102 44t37 122q0 83 -37 128.5t-104 45.5zM388 482h138v-72h-24q-17 0 -24 -5.5t-7 -19.5v-326q0 -73 -5.5 -104t-21.5 -53q-49 -70 -193 -70q-136 0 -179 71q-12 20 -22 67h93
q8 -37 30 -50.5t75 -13.5q72 0 101 21.5t29 76.5v69q-46 -41 -73.5 -54.5t-67.5 -13.5q-88 0 -150 72.5t-62 176.5q0 93 52 165q58 79 160 79q49 0 82.5 -17t68.5 -60v61z" />
    <glyph glyph-name="h" unicode="h" horiz-adv-x="586" 
d="M23 596v70h148v-245q39 42 72.5 57.5t83.5 15.5q180 0 180 -172v-228q0 -18 2.5 -21.5t16.5 -3.5h36v-69h-200v69h32q14 0 18 6.5t4 28.5v226q0 40 -32.5 67t-80.5 27q-56 0 -94 -38.5t-38 -95.5v-195q0 -17 4.5 -21.5t21.5 -4.5h28v-69h-202v69h30q16 0 21.5 6t5.5 23
v480q0 18 -27 18h-30z" />
    <glyph glyph-name="i" unicode="i" horiz-adv-x="256" 
d="M81 564v102h96v-102h-96zM26 0v68h36q11 0 15 6.5t4 23.5v288q0 14 -4.5 18t-20.5 4h-29v72h147v-382q0 -19 3 -24.5t14 -5.5h38v-68h-203z" />
    <glyph glyph-name="j" unicode="j" horiz-adv-x="244" 
d="M81 565v101h96v-101h-96zM-5 -163v74h46h2q4 -2 13 0.5t14 7.5q11 12 11 57v407q0 17 -5.5 22t-23.5 5h-25v70h150v-499q0 -86 -27 -115t-107 -29h-48z" />
    <glyph glyph-name="k" unicode="k" horiz-adv-x="540" 
d="M24 595v71h145v-374l104 96q12 12 12 17q0 7 -21 7h-29v71h238v-71h-42q-13 0 -29 -15l-94 -84l148 -226q12 -18 32 -18h40v-69h-225v69h37q19 0 19 9q0 6 -8 18l-107 161l-75 -69v-91q0 -28 24 -28h31v-69h-199v69h33q14 0 18.5 7.5t4.5 31.5v460q0 27 -31 27h-26z" />
    <glyph glyph-name="l" unicode="l" horiz-adv-x="256" 
d="M26 0v69h33q14 0 18.5 7t4.5 30v462q0 27 -29 27h-26v68h148v-562q0 -23 2.5 -27.5t14.5 -4.5h35v-69h-201z" />
    <glyph glyph-name="m" unicode="m" horiz-adv-x="831" 
d="M26 0v68h25q31 0 31 26v287q0 18 -5.5 24.5t-20.5 6.5h-30v70h141v-64q50 78 140 78q61 0 100 -37q17 -15 42 -56q35 52 65.5 71.5t77.5 19.5q42 0 80 -20t55 -51q20 -35 20 -96v-233q0 -15 5 -20.5t18 -5.5h30v-68h-196v68h27q16 0 22.5 8t6.5 28v212q0 49 -24 77
t-65 28q-48 0 -80.5 -44.5t-32.5 -109.5v-168q0 -19 5 -25t21 -6h30v-68h-197v68h27q14 0 19.5 8t5.5 28v209q0 52 -22.5 80t-64.5 28q-52 0 -82.5 -40t-30.5 -108v-180q0 -16 3.5 -20.5t17.5 -4.5h33v-68h-197z" />
    <glyph glyph-name="n" unicode="n" horiz-adv-x="598" 
d="M37 0v69h27q29 0 29 30v262q0 30 -1 35.5t-7 8.5q-10 6 -21 6h-26v69h144v-61q39 43 73.5 58.5t87.5 15.5q84 0 129 -42.5t45 -122.5v-229q0 -21 4 -25.5t23 -4.5h28v-69h-199v69h32q13 0 17 7t4 29v221q0 42 -30 69.5t-76 27.5q-38 0 -71 -18t-49 -46q-7 -13 -15 -58.5
t-4 -53.5q1 -1 1 -3v-145q0 -17 5 -23.5t18 -6.5h31v-69h-199z" />
    <glyph glyph-name="o" unicode="o" horiz-adv-x="539" 
d="M266 420q-67 0 -108 -50t-41 -131q0 -82 42 -132.5t110 -50.5t109 49t41 130q0 82 -42.5 133.5t-110.5 51.5zM260 494q112 0 183 -71t71 -182q0 -115 -68.5 -187.5t-177.5 -72.5q-105 0 -173.5 70.5t-68.5 179.5q0 120 63.5 191.5t170.5 71.5z" />
    <glyph glyph-name="p" unicode="p" horiz-adv-x="551" 
d="M301 419q-65 0 -105.5 -49.5t-40.5 -129.5q0 -83 39.5 -134.5t102.5 -51.5q56 0 92 41q19 20 30.5 62t11.5 87q0 85 -33.5 130t-96.5 45zM24 -162v69h31q26 0 26 32v440q0 32 -27 32h-30v69h144v-66q34 46 66 63.5t82 17.5q93 0 151 -70.5t58 -183.5q0 -144 -86 -214
q-55 -46 -129 -46q-41 0 -72 15t-70 54v-113q0 -30 25 -30h30v-69h-199z" />
    <glyph glyph-name="q" unicode="q" horiz-adv-x="550" 
d="M252 421q-63 0 -99 -48t-36 -132q0 -85 36.5 -135t97.5 -50t101.5 52.5t40.5 132.5t-39.5 130t-101.5 50zM386 480h141v-71h-36q-21 0 -21 -30v-445q0 -18 3.5 -22t20.5 -4h28v-70h-144v212q-37 -39 -67 -52.5t-78 -13.5q-93 0 -151.5 70t-58.5 181q0 100 54 177
q58 82 153 82q74 0 117 -37q15 -13 39 -48v71z" />
    <glyph glyph-name="r" unicode="r" horiz-adv-x="349" 
d="M26 0v67h23q18 0 25.5 9t7.5 31v276q0 16 -6.5 22t-23.5 6h-26v69h144v-81q34 55 61.5 74t72.5 19q17 0 27 -1v-87q-26 3 -45 3q-52 0 -84 -38t-32 -100v-176q0 -11 6.5 -19t16.5 -8h31v-66h-198z" />
    <glyph glyph-name="s" unicode="s" horiz-adv-x="478" 
d="M24 0v158h89q11 -61 37.5 -83.5t87.5 -22.5q56 0 88.5 20.5t32.5 56.5q0 28 -21 44q-21 15 -98 32q-110 25 -155 57t-45 87q0 65 50.5 105.5t132.5 40.5q44 0 70.5 -8.5t65.5 -35.5v29h68v-146h-82q-14 54 -36.5 73t-73.5 19q-109 0 -109 -64q0 -46 85 -64
q110 -24 166 -50q71 -33 71 -115q0 -70 -58 -110t-158 -40q-48 0 -79.5 10.5t-63.5 38.5v-32h-65z" />
    <glyph glyph-name="t" unicode="t" horiz-adv-x="279" 
d="M-1 411v72h73v151h91v-151h89v-72h-88v-289q0 -29 8.5 -40.5t30.5 -11.5h49v-70h-79q-53 0 -77 24.5t-24 78.5v308h-73z" />
    <glyph glyph-name="u" unicode="u" horiz-adv-x="581" 
d="M17 412v70h148v-330q0 -45 28 -71.5t76 -26.5q38 0 69.5 17t47.5 46q20 37 20 110v162q0 23 -29 23h-25v70h147v-387q0 -17 4.5 -22t20.5 -5h25v-68h-144v55q-70 -73 -159 -73q-58 0 -101 22.5t-59 62.5q-14 36 -14 84v237q0 14 -6.5 19t-23.5 5h-25z" />
    <glyph glyph-name="v" unicode="v" horiz-adv-x="515" 
d="M10 409v71h199v-70h-32q-17 0 -17 -13q0 -5 3 -12l98 -270l94 278q0 12 -3 14t-20 2h-25v71h200v-70h-28q-29 0 -34 -17l-138 -393h-90l-144 393q-7 16 -35 16h-28z" />
    <glyph glyph-name="w" unicode="w" horiz-adv-x="751" 
d="M8 408v72h199v-72h-34q-16 0 -16 -15v-1v-1l80 -263l93 352h87l97 -352l75 255q3 12 3 15q0 10 -16 10h-34v72h200v-72h-32q-16 0 -22 -4.5t-11 -20.5l-119 -383h-92l-91 326l-92 -326h-91l-124 396q-4 12 -28 12h-32z" />
    <glyph glyph-name="x" unicode="x" horiz-adv-x="525" 
d="M13 0v70h40q19 0 27 11l130 177l-103 134q-13 17 -32 17h-41v71h202v-70h-25q-4 0 -7.5 -4t-3.5 -8q1 -5 3 -7l52 -75l46 74l1 3l2 2q4 8 4 9q0 5 -19 5h-18v71h202v-70h-39q-22 0 -29 -10l-104 -137l139 -182q5 -7 11.5 -9t27.5 -2h28v-70h-217v70h26q20 0 20 10
q0 8 -6 15l-75 106l-67 -106l-1 -2q-4 -6 -6 -10l-3 -6q0 -7 10 -7h39v-70h-214z" />
    <glyph glyph-name="y" unicode="y" horiz-adv-x="515" 
d="M8 483h200v-73h-31q-19 0 -19 -11v-1l1 -1v-2l98 -285l97 284v3h1v3q0 9 -18 9h-32v74h203v-73h-38q-21 0 -26 -16l-162 -454q-21 -59 -44 -80t-67 -21h-83v69h61q34 0 47 32l18 47l-145 407q-4 10 -8.5 12.5t-18.5 2.5h-34v74z" />
    <glyph glyph-name="z" unicode="z" horiz-adv-x="455" 
d="M18 0v60l264 345h-155q-22 0 -22 -23v-37h-72v137h375v-51l-274 -355h194q16 0 22.5 6t6.5 21v34h70v-137h-409z" />
    <glyph glyph-name="braceleft" unicode="{" horiz-adv-x="290" 
d="M171 526v-160q0 -50 -12 -73.5t-49 -44.5q35 -21 48 -46t13 -74v-155q0 -62 15.5 -80t68.5 -18h12v-58h-4l-6 -1h-15q-78 0 -111 33.5t-33 113.5v163q0 44 -12 63.5t-45 29.5v58q33 10 45 29.5t12 64.5v173q0 72 33.5 105t106.5 33q17 0 29 -1v-57h-12q-51 0 -70 -22
q-14 -17 -14 -76z" />
    <glyph glyph-name="bar" unicode="|" 
d="M218 666h63v-839h-63v839z" />
    <glyph glyph-name="braceright" unicode="}" horiz-adv-x="290" 
d="M119 -28v160q0 50 12 73t49 44q-36 21 -48.5 45.5t-12.5 73.5v156q0 63 -15.5 81t-68.5 18h-13v58h4l6 1h16q77 0 110.5 -34t33.5 -113v-163q0 -46 12 -65.5t45 -28.5v-58q-33 -10 -45 -29.5t-12 -64.5v-172q0 -71 -33.5 -104.5t-105.5 -33.5q-17 0 -27 1h-4v58h13
q53 0 68.5 18t15.5 79z" />
    <glyph glyph-name="asciitilde" unicode="~" horiz-adv-x="499" 
d="M456 695l39 -38q-38 -65 -67.5 -90t-67.5 -25q-31 0 -114 37l-45 20q-39 18 -64 18q-24 0 -44 -19t-51 -71l-39 39q40 64 69.5 89t66.5 25q32 0 126 -41l48 -21q30 -13 47 -13q25 0 47 20.5t49 69.5z" />
    <glyph glyph-name="uni00A0" unicode="&#xa0;" horiz-adv-x="213" 
 />
    <glyph glyph-name="exclamdown" unicode="&#xa1;" horiz-adv-x="244" 
d="M47 405v101h97v-101h-97zM47 -159v197q0 42 11 130q1 3 1 7l9 108l7 69h41l20 -213l2 -19q2 -22 2 -28q2 -20 2 -23v-228h-95z" />
    <glyph glyph-name="cent" unicode="&#xa2;" horiz-adv-x="600" 
d="M270 161v359q-41 -7 -58 -19q-33 -22 -53.5 -67t-20.5 -96q0 -47 18 -88t49 -62q24 -17 65 -27zM271 666h53v-60q92 -7 148.5 -58t67.5 -134h-100q-14 53 -39 75.5t-79 32.5v-361q52 4 78.5 27t39.5 75h101q-31 -179 -221 -188v-75h-52v77q-69 11 -107 33q-56 31 -89 93
t-33 135q0 77 35.5 141t96.5 97q33 17 100 29v61z" />
    <glyph glyph-name="sterling" unicode="&#xa3;" horiz-adv-x="600" 
d="M134 0h-88q17 68 40.5 95.5t78.5 45.5q40 47 40 87q0 31 -23 81h-127v62h100q-35 81 -35 130q0 80 53 130t139 50q109 0 165 -70q31 -39 42 -131h-96q-10 69 -34.5 98t-71.5 29t-74.5 -27t-27.5 -73q0 -45 40 -136h161v-62h-133q18 -58 18 -87q0 -28 -8 -47t-30 -46
q91 -48 142 -48q35 0 46.5 23.5t12.5 94.5h90q-2 -65 -7 -91.5t-19 -51.5q-38 -65 -113 -65q-42 0 -90 21l-64 28q-38 16 -62 16q-23 0 -36.5 -11.5t-28.5 -44.5z" />
    <glyph glyph-name="currency" unicode="&#xa4;" horiz-adv-x="666" 
d="M334 524q-68 0 -115.5 -48t-47.5 -115t47.5 -115t114.5 -48t114.5 48t47.5 115q0 68 -47 115.5t-114 47.5zM47 125l96 96q-48 66 -48 141q0 72 49 140l-98 98l47 46l97 -97q69 49 143 49q73 0 141 -47l96 95l46 -47l-95 -94q51 -68 51 -144q0 -72 -49 -140l96 -96
l-46 -46l-95 95q-71 -50 -146 -50q-73 0 -143 50l-96 -95z" />
    <glyph glyph-name="yen" unicode="&#xa5;" horiz-adv-x="600" 
d="M213 405l-96 155q-15 24 -32 24h-36v82h218v-82h-34q-21 0 -21 -12q0 -4 8 -17l117 -182l111 181q10 17 10 20q0 10 -19 10h-32v82h213v-82h-25q-19 0 -27 -5.5t-22 -28.5l-89 -145h85v-62h-123l-36 -59h159v-62h-159v-113q0 -16 5 -21.5t19 -5.5h32v-82h-205v82h34
q11 0 15.5 6.5t4.5 22.5v111h-157v62h157l-36 59h-121v62h82z" />
    <glyph glyph-name="brokenbar" unicode="&#xa6;" 
d="M281 320h-65v345h65v-345zM216 150h65v-324h-65v324z" />
    <glyph glyph-name="section" unicode="&#xa7;" horiz-adv-x="512" 
d="M214 382l-34 19q-1 0 -5 2q-3 2 -6 3q-71 -30 -71 -85q0 -26 19 -47t69 -52q21 -14 84 -47l29 -17l30 -18h1q0 -1 2 -1l2 -1l4 -2q74 27 74 84q0 28 -22 52t-75 55l-50 29zM436 511h-76q-10 107 -105 107q-43 0 -69 -21t-26 -56q0 -29 19 -48t79 -50q113 -58 161 -94
q68 -49 68 -117q0 -94 -102 -134q29 -27 41 -50t12 -53q0 -67 -50 -108.5t-131 -41.5q-97 0 -148 56q-22 24 -31 50t-11 70l1 4h76q5 -59 31.5 -86t78.5 -27q46 0 74 22t28 59q0 34 -29 61t-109 67q-117 59 -155.5 97t-38.5 96q0 92 101 132q-46 45 -46 94q0 63 48.5 103
t125.5 40q91 0 139 -53q39 -41 44 -119z" />
    <glyph glyph-name="dieresis" unicode="&#xa8;" horiz-adv-x="287" 
d="M169 666v103h85v-103h-85zM33 666v102h85v-102h-85z" />
    <glyph glyph-name="copyright" unicode="&#xa9;" horiz-adv-x="778" 
d="M388 632h-5q-124 0 -208 -86t-84 -212q0 -125 87 -213t210 -88q122 0 208.5 87.5t86.5 211.5q0 125 -86 212.5t-209 87.5zM384 681q146 0 248.5 -100.5t102.5 -244.5q0 -146 -101.5 -247.5t-246.5 -101.5q-143 0 -244.5 101.5t-101.5 244.5t101 245.5t242 102.5zM492 500
v35h49v-121h-53q-15 33 -24 44q-31 36 -85 36q-59 0 -95 -43.5t-36 -114.5q0 -73 36 -119.5t93 -46.5q53 0 86 39q18 22 25 76h59q-8 -74 -39 -108q-50 -55 -132 -55t-135 59.5t-53 151.5q0 95 52.5 152t139.5 57q33 0 56.5 -8.5t55.5 -33.5z" />
    <glyph glyph-name="ordfeminine" unicode="&#xaa;" horiz-adv-x="398" 
d="M265 508v20q-13 -9 -38 -11q-68 -6 -89 -17t-21 -39q0 -50 60 -50q88 0 88 97zM353 319v-39h-294v39h294zM332 379h-59q-2 6 -6 20l-1 9v9q-31 -29 -50 -37.5t-51 -8.5q-51 0 -79 23t-28 64q0 47 36.5 68t129.5 28q25 2 33 7.5t8 21.5q0 56 -65 56q-35 0 -51.5 -14
t-21.5 -48h-54q5 53 36 78t92 25q71 0 100 -31q9 -10 16.5 -29.5t5.5 -30.5l-1 -8l-1 -9v-34v-35v-26q3 -63 4.5 -75t6.5 -23z" />
    <glyph glyph-name="guillemotleft" unicode="&#xab;" horiz-adv-x="348" 
d="M261 397h64l-86 -194l86 -190h-63l-86 190zM129 397h64l-86 -194l86 -190h-63l-87 190z" />
    <glyph glyph-name="logicalnot" unicode="&#xac;" 
d="M430 0v209h-421v59h481v-268h-60z" />
    <glyph glyph-name="uni00AD" unicode="&#xad;" horiz-adv-x="365" 
d="M68 198v79h229v-79h-229z" />
    <glyph glyph-name="registered" unicode="&#xae;" horiz-adv-x="778" 
d="M388 632h-5q-124 0 -208 -86t-84 -212q0 -125 87 -213t210 -88q122 0 208.5 87.5t86.5 211.5q0 125 -86 212.5t-209 87.5zM384 680q147 0 249.5 -100.5t102.5 -243.5q0 -146 -101 -247.5t-247 -101.5q-144 0 -245.5 101.5t-101.5 244.5q0 142 101.5 244.5t241.5 102.5z
M297 487v-138h110q83 0 83 72q0 31 -18.5 48.5t-50.5 17.5h-124zM207 487v48h218q54 0 88.5 -30.5t34.5 -78.5q0 -37 -15 -59.5t-53 -41.5q26 -11 34.5 -21t12.5 -32l8 -63q3 -23 13 -23h23v-50h-49h-1q-26 0 -34.5 9t-8.5 36q-1 69 -16 95.5t-54 26.5h-111v-91
q0 -17 3 -21.5t14 -4.5h17v-50h-124v50h22q9 0 10.5 5t1.5 31v246q0 19 -16 19h-18z" />
    <glyph glyph-name="macron" unicode="&#xaf;" horiz-adv-x="365" 
d="M68 666v79h229v-79h-229z" />
    <glyph glyph-name="degree" unicode="&#xb0;" 
d="M249 631q-39 0 -67.5 -28.5t-28.5 -67.5q0 -41 28 -70t68 -29t68.5 28.5t28.5 69.5q0 40 -28 68.5t-69 28.5zM249 680q63 0 107 -42.5t44 -103.5t-44 -104t-106 -43t-106 42.5t-44 103.5t43.5 104t105.5 43z" />
    <glyph glyph-name="plusminus" unicode="&#xb1;" 
d="M9 128h481v-65h-481v65zM9 417h208v195h65v-194h208v-66h-207v-182h-65v182h-209v65z" />
    <glyph glyph-name="twosuperior" unicode="&#xb2;" horiz-adv-x="354" 
d="M315 340h-277q1 51 32.5 84.5t116.5 72.5q42 21 57.5 37t15.5 41q0 29 -20.5 46t-56.5 17q-38 0 -59 -17.5t-21 -49.5v-17h-58q1 53 23 80q39 44 114 44q62 0 99.5 -28.5t37.5 -74.5q0 -65 -81 -102l-54 -25q-67 -30 -79 -63q-1 -3 -2 -5h146q15 0 15 15v14h51v-69z" />
    <glyph glyph-name="threesuperior" unicode="&#xb3;" horiz-adv-x="354" 
d="M22 447h60q6 -35 20 -49q27 -29 80 -29q39 0 63.5 17.5t24.5 45.5q0 64 -104 64h-25v37q11 -1 24 -1q41 0 63.5 14.5t22.5 39.5q0 23 -20 37.5t-54 14.5q-77 0 -82 -71h-57q12 111 139 111q59 0 96 -25.5t37 -66.5q0 -51 -66 -70q31 -8 45 -16q40 -24 40 -71
q0 -46 -39 -73t-107 -27q-145 0 -161 118z" />
    <glyph glyph-name="acute" unicode="&#xb4;" horiz-adv-x="266" 
d="M107 803h125l-127 -137h-72z" />
    <glyph glyph-name="mu" unicode="&#xb5;" 
d="M44 -168v651h78v-271q0 -61 14 -89q36 -71 110 -71q57 0 92.5 46.5t35.5 121.5v263h79v-483h-78v80q-27 -52 -55.5 -72.5t-74.5 -20.5q-43 0 -70 16t-53 57v-228h-78z" />
    <glyph glyph-name="paragraph" unicode="&#xb6;" horiz-adv-x="565" 
d="M241 -96v412l-9 -1h-5q-81 0 -131.5 48.5t-50.5 126.5q0 86 57 131t165 45h231v-41h-48v-721h-53v721h-101v-721h-55z" />
    <glyph glyph-name="periodcentered" unicode="&#xb7;" horiz-adv-x="366" 
d="M181 430q46 0 78 -31t32 -75q0 -47 -30.5 -78.5t-76.5 -31.5q-45 0 -77 31.5t-32 76.5t31 76.5t75 31.5z" />
    <glyph glyph-name="cedilla" unicode="&#xb8;" horiz-adv-x="221" 
d="M33 -195l5 47q40 -9 55 -9q19 0 31 8t12 22q0 26 -54 26h-21l15 109h41l-2 -61q38 -5 55.5 -22.5t17.5 -49.5q0 -38 -26 -58.5t-75 -20.5q-22 0 -54 9z" />
    <glyph glyph-name="onesuperior" unicode="&#xb9;" horiz-adv-x="352" 
d="M72 584v29q46 5 68 19t28 43h45v-280q0 -9 3.5 -11.5t14.5 -2.5h28v-41h-150v41h26q13 0 17.5 3t4.5 13v187h-85z" />
    <glyph glyph-name="ordmasculine" unicode="&#xba;" horiz-adv-x="410" 
d="M206 636q-42 0 -66.5 -29.5t-24.5 -80.5q0 -52 24 -81.5t66 -29.5q41 0 65 29t24 78q0 52 -23.5 83t-64.5 31zM355 319v-39h-294v39h294zM204 680q67 0 107.5 -42t40.5 -112q0 -71 -40.5 -113t-107.5 -42q-66 0 -106.5 42.5t-40.5 111.5t41 112t106 43z" />
    <glyph glyph-name="guillemotright" unicode="&#xbb;" horiz-adv-x="365" 
d="M238 397l85 -194l-85 -190h-63l85 190l-86 194h64zM105 397l86 -194l-86 -190h-63l86 190l-86 194h63z" />
    <glyph glyph-name="onequarter" unicode="&#xbc;" horiz-adv-x="800" 
d="M72 584v29q46 5 68 19t28 43h45v-280q0 -9 3.5 -11.5t14.5 -2.5h28v-41h-150v41h26q13 0 17.5 3t4.5 13v187h-85zM622 657l-390 -657h-54l391 657h53zM512 118h127v139zM455 80v40l195 215h45v-217h63v-37h-63v-30q0 -9 11 -9h23v-42h-124v42h18q16 0 16 12v26h-184z" />
    <glyph glyph-name="onehalf" unicode="&#xbd;" horiz-adv-x="800" 
d="M72 584v29q46 5 68 19t28 43h45v-280q0 -9 3.5 -11.5t14.5 -2.5h28v-41h-150v41h26q13 0 17.5 3t4.5 13v187h-85zM621 657l-390 -657h-54l391 657h53zM761 0h-277q1 51 32.5 84.5t116.5 72.5q42 21 57.5 37t15.5 41q0 29 -20.5 46t-56.5 17q-38 0 -59 -17.5t-21 -49.5
v-17h-58q1 53 23 80q39 44 114 44q62 0 99.5 -28.5t37.5 -74.5q0 -65 -81 -102l-54 -25q-67 -30 -79 -63q-1 -3 -2 -5h146q15 0 15 15v14h51v-69z" />
    <glyph glyph-name="threequarters" unicode="&#xbe;" horiz-adv-x="806" 
d="M648 657l-390 -657h-54l391 657h53zM538 118h127v139zM481 80v40l195 215h45v-217h63v-37h-63v-30q0 -9 12 -9h23v-42h-125v42h18q16 0 16 12v26h-184zM22 447h60q6 -35 20 -49q27 -29 80 -29q39 0 63.5 17.5t24.5 45.5q0 64 -104 64h-25v37q11 -1 24 -1q41 0 63.5 14.5
t22.5 39.5q0 23 -20 37.5t-54 14.5q-77 0 -82 -71h-57q12 111 139 111q59 0 96 -25.5t37 -66.5q0 -51 -66 -70q31 -8 45 -16q40 -24 40 -71q0 -46 -39 -73t-107 -27q-145 0 -161 118z" />
    <glyph glyph-name="questiondown" unicode="&#xbf;" horiz-adv-x="478" 
d="M186 507h96v-102h-96v102zM187 354h93v-7q0 -64 -16 -104t-59 -81l-55 -53q-42 -40 -42 -95q0 -45 29.5 -71.5t79.5 -26.5q47 0 72.5 16.5t39.5 54.5q10 29 14 80h91q-2 -55 -9 -83.5t-23 -53.5q-60 -96 -185 -96q-89 0 -146 51t-57 131q0 47 20 84.5t69 82.5
q57 50 69.5 75.5t14.5 95.5z" />
    <glyph glyph-name="Agrave" unicode="&#xc0;" horiz-adv-x="677" 
d="M242 874h119l72 -140h-70zM229 275h214l-109 284zM9 0v83h32q20 0 25 12l177 451q7 20 7 25q0 12 -21 12h-32v83h186l214 -541q7 -16 9 -23q5 -12 10.5 -15.5t21.5 -3.5h29v-83h-210v83h31q15 0 19 2t4 8t-12 38l-28 71h-266l-30 -78q-11 -30 -11 -31q0 -10 32 -10h24
v-83h-211z" />
    <glyph glyph-name="Aacute" unicode="&#xc1;" horiz-adv-x="677" 
d="M312 871h125l-127 -137h-72zM229 275h214l-109 284zM9 0v83h32q20 0 25 12l177 451q7 20 7 25q0 12 -21 12h-32v83h186l214 -541q7 -16 9 -23q5 -12 10.5 -15.5t21.5 -3.5h29v-83h-210v83h31q15 0 19 2t4 8t-12 38l-28 71h-266l-30 -78q-11 -30 -11 -31q0 -10 32 -10h24
v-83h-211z" />
    <glyph glyph-name="Acircumflex" unicode="&#xc2;" horiz-adv-x="677" 
d="M192 734l75 139h143l72 -139h-60l-73 94h-23l-72 -94h-62zM229 275h214l-109 284zM9 0v83h32q20 0 25 12l177 451q7 20 7 25q0 12 -21 12h-32v83h186l214 -541q7 -16 9 -23q5 -12 10.5 -15.5t21.5 -3.5h29v-83h-210v83h31q15 0 19 2t4 8t-12 38l-28 71h-266l-30 -78
q-11 -30 -11 -31q0 -10 32 -10h24v-83h-211z" />
    <glyph glyph-name="Atilde" unicode="&#xc3;" horiz-adv-x="677" 
d="M243 738l-49 18q20 55 38 75.5t46 20.5q14 0 57 -17l33 -13q22 -8 32 -8q9 0 15.5 7t17.5 30l49 -19q-21 -57 -37.5 -77.5t-41.5 -20.5q-31 0 -87 26q-26 12 -39 12q-15 0 -34 -34zM229 275h214l-109 284zM9 0v83h32q20 0 25 12l177 451q7 20 7 25q0 12 -21 12h-32v83
h186l214 -541q7 -16 9 -23q5 -12 10.5 -15.5t21.5 -3.5h29v-83h-210v83h31q15 0 19 2t4 8t-12 38l-28 71h-266l-30 -78q-11 -30 -11 -31q0 -10 32 -10h24v-83h-211z" />
    <glyph glyph-name="Adieresis" unicode="&#xc4;" horiz-adv-x="677" 
d="M363 735v102h85v-102h-85zM227 735v102h85v-102h-85zM229 275h214l-109 284zM9 0v83h32q20 0 25 12l177 451q7 20 7 25q0 12 -21 12h-32v83h186l214 -541q7 -16 9 -23q5 -12 10.5 -15.5t21.5 -3.5h29v-83h-210v83h31q15 0 19 2t4 8t-12 38l-28 71h-266l-30 -78
q-11 -30 -11 -31q0 -10 32 -10h24v-83h-211z" />
    <glyph glyph-name="Aring" unicode="&#xc5;" horiz-adv-x="677" 
d="M330 864q-19 0 -33 -13t-14 -30q0 -19 15 -34.5t33 -15.5t31.5 14t13.5 33t-13.5 32.5t-32.5 13.5zM330 901q34 0 58.5 -24.5t24.5 -58.5t-24.5 -59t-56.5 -25q-30 0 -58 28.5t-28 59.5q0 32 25 55.5t59 23.5zM229 275h214l-109 284zM9 0v83h32q20 0 25 12l177 451
q7 20 7 25q0 12 -21 12h-32v83h186l214 -541q7 -16 9 -23q5 -12 10.5 -15.5t21.5 -3.5h29v-83h-210v83h31q15 0 19 2t4 8t-12 38l-28 71h-266l-30 -78q-11 -30 -11 -31q0 -10 32 -10h24v-83h-211z" />
    <glyph glyph-name="AE" unicode="&#xc6;" horiz-adv-x="971" 
d="M428 584l-157 -309h173v260q0 26 -3 35t-13 14zM916 666v-137h-82v34q0 21 -41 21h-255v-196h335v-79h-335v-225h275q29 0 29 24v30h83v-138h-537v83h30q17 0 21.5 7.5t4.5 37.5v75h-208l-40 -79q-13 -26 -13 -29q0 -7 5.5 -9.5t22.5 -2.5h23v-83h-222v83h43q21 0 28 12
l240 452q9 17 9 23q0 14 -18 14h-32v82h634z" />
    <glyph glyph-name="Ccedilla" unicode="&#xc7;" horiz-adv-x="664" 
d="M538 607v59h81v-201h-87q-26 55 -41 72q-23 28 -61 44t-80 16q-98 0 -158 -72t-60 -191q0 -123 59.5 -199.5t155.5 -76.5q52 0 95.5 25t65.5 67q14 29 23 99h98q-8 -77 -24.5 -117t-55.5 -79q-78 -74 -196 -74v-61q38 -6 55 -23t17 -48q0 -80 -101 -80q-23 0 -55 9l6 47
q35 -9 54 -9q44 0 44 30q0 26 -54 26h-4h-4q-10 0 -14 -1l16 111q-85 13 -136 47q-70 47 -107.5 126.5t-37.5 178.5q0 156 87.5 250.5t231.5 94.5q56 0 94.5 -14.5t92.5 -55.5z" />
    <glyph glyph-name="Egrave" unicode="&#xc8;" horiz-adv-x="596" 
d="M30 583v83h528v-137h-82v33q0 21 -40 21h-255v-195h335v-79h-335v-225h274q17 0 23.5 5.5t6.5 18.5v30h83v-138h-537v83h30q16 0 21 8.5t5 36.5v407q0 28 -5.5 38t-20.5 10h-31zM203 874h119l72 -140h-70z" />
    <glyph glyph-name="Eacute" unicode="&#xc9;" horiz-adv-x="596" 
d="M30 583v83h528v-137h-82v33q0 21 -40 21h-255v-195h335v-79h-335v-225h274q17 0 23.5 5.5t6.5 18.5v30h83v-138h-537v83h30q16 0 21 8.5t5 36.5v407q0 28 -5.5 38t-20.5 10h-31zM273 871h125l-127 -137h-72z" />
    <glyph glyph-name="Ecircumflex" unicode="&#xca;" horiz-adv-x="596" 
d="M30 583v83h528v-137h-82v33q0 21 -40 21h-255v-195h335v-79h-335v-225h274q17 0 23.5 5.5t6.5 18.5v30h83v-138h-537v83h30q16 0 21 8.5t5 36.5v407q0 28 -5.5 38t-20.5 10h-31zM153 734l75 139h143l72 -139h-60l-73 94h-23l-72 -94h-62z" />
    <glyph glyph-name="Edieresis" unicode="&#xcb;" horiz-adv-x="596" 
d="M30 583v83h528v-137h-82v33q0 21 -40 21h-255v-195h335v-79h-335v-225h274q17 0 23.5 5.5t6.5 18.5v30h83v-138h-537v83h30q16 0 21 8.5t5 36.5v407q0 28 -5.5 38t-20.5 10h-31zM324 735v102h85v-102h-85zM188 735v102h85v-102h-85z" />
    <glyph glyph-name="Igrave" unicode="&#xcc;" horiz-adv-x="269" 
d="M30 583v83h206v-83h-27q-30 0 -30 -23v-423q0 -39 4.5 -47t24.5 -8h28v-82h-205v82h28q18 0 23 8t5 34v433q0 26 -29 26h-28zM37 874h119l72 -140h-70z" />
    <glyph glyph-name="Iacute" unicode="&#xcd;" horiz-adv-x="269" 
d="M30 583v83h206v-83h-27q-30 0 -30 -23v-423q0 -39 4.5 -47t24.5 -8h28v-82h-205v82h28q18 0 23 8t5 34v433q0 26 -29 26h-28zM107 871h125l-127 -137h-72z" />
    <glyph glyph-name="Icircumflex" unicode="&#xce;" horiz-adv-x="269" 
d="M30 583v83h206v-83h-27q-30 0 -30 -23v-423q0 -39 4.5 -47t24.5 -8h28v-82h-205v82h28q18 0 23 8t5 34v433q0 26 -29 26h-28zM-12 734l75 139h143l72 -139h-60l-73 94h-23l-72 -94h-62z" />
    <glyph glyph-name="Idieresis" unicode="&#xcf;" horiz-adv-x="269" 
d="M30 583v83h206v-83h-27q-30 0 -30 -23v-423q0 -39 4.5 -47t24.5 -8h28v-82h-205v82h28q18 0 23 8t5 34v433q0 26 -29 26h-28zM159 735v102h85v-102h-85zM23 735v102h85v-102h-85z" />
    <glyph glyph-name="Eth" unicode="&#xd0;" horiz-adv-x="648" 
d="M182 296v-214h142q195 0 195 254q0 120 -47 184t-136 64h-154v-177h152v-111h-152zM88 407v134q0 27 -5 35t-22 8h-29v82h290q156 0 231 -103q63 -87 63 -214q0 -174 -87 -272q-30 -34 -82.5 -55.5t-108.5 -21.5h-307v82h23q21 0 27.5 10t6.5 42v162h-57v111h57z" />
    <glyph glyph-name="Ntilde" unicode="&#xd1;" horiz-adv-x="690" 
d="M249 738l-49 18q20 55 38 75.5t46 20.5q15 0 57 -17l33 -13q22 -8 32 -8q9 0 15.5 7t17.5 30l49 -19q-21 -57 -37.5 -77.5t-41.5 -20.5q-31 0 -87 26q-26 12 -39 12q-15 0 -34 -34zM29 584v82h152l331 -506v367q0 42 -3.5 49.5t-22.5 7.5h-29v82h203v-81h-30
q-26 0 -26 -31v-554h-92l-336 510v-389q0 -23 4.5 -30.5t20.5 -7.5h31v-83h-202v83h28q16 0 22 6.5t6 23.5v414q0 41 -4 49t-24 8h-29z" />
    <glyph glyph-name="Ograve" unicode="&#xd2;" horiz-adv-x="709" 
d="M358 600q-67 0 -115 -29q-51 -29 -83.5 -97t-32.5 -145q0 -115 64.5 -193t159.5 -78q100 0 164 76t64 194q0 120 -61.5 196t-159.5 76zM352 679q148 0 237.5 -95.5t89.5 -252.5q0 -158 -89.5 -254t-237.5 -96q-146 0 -234 94t-88 250q0 163 87 258.5t235 95.5zM259 886
h119l72 -140h-70z" />
    <glyph glyph-name="Oacute" unicode="&#xd3;" horiz-adv-x="709" 
d="M358 600q-67 0 -115 -29q-51 -29 -83.5 -97t-32.5 -145q0 -115 64.5 -193t159.5 -78q100 0 164 76t64 194q0 120 -61.5 196t-159.5 76zM352 679q148 0 237.5 -95.5t89.5 -252.5q0 -158 -89.5 -254t-237.5 -96q-146 0 -234 94t-88 250q0 163 87 258.5t235 95.5zM328 883
h125l-127 -137h-72z" />
    <glyph glyph-name="Ocircumflex" unicode="&#xd4;" horiz-adv-x="709" 
d="M358 600q-67 0 -115 -29q-51 -29 -83.5 -97t-32.5 -145q0 -115 64.5 -193t159.5 -78q100 0 164 76t64 194q0 120 -61.5 196t-159.5 76zM352 679q148 0 237.5 -95.5t89.5 -252.5q0 -158 -89.5 -254t-237.5 -96q-146 0 -234 94t-88 250q0 163 87 258.5t235 95.5zM209 746
l75 139h143l72 -139h-60l-73 94h-23l-72 -94h-62z" />
    <glyph glyph-name="Otilde" unicode="&#xd5;" horiz-adv-x="709" 
d="M358 600q-67 0 -115 -29q-51 -29 -83.5 -97t-32.5 -145q0 -115 64.5 -193t159.5 -78q100 0 164 76t64 194q0 120 -61.5 196t-159.5 76zM352 679q148 0 237.5 -95.5t89.5 -252.5q0 -158 -89.5 -254t-237.5 -96q-146 0 -234 94t-88 250q0 163 87 258.5t235 95.5zM259 750
l-49 18q20 55 38 75.5t46 20.5q15 0 57 -17l33 -13q22 -8 32 -8q9 0 15.5 7t17.5 30l49 -19q-21 -57 -37.5 -77.5t-41.5 -20.5q-31 0 -87 26q-26 12 -39 12q-15 0 -34 -34z" />
    <glyph glyph-name="Odieresis" unicode="&#xd6;" horiz-adv-x="709" 
d="M358 600q-67 0 -115 -29q-51 -29 -83.5 -97t-32.5 -145q0 -115 64.5 -193t159.5 -78q100 0 164 76t64 194q0 120 -61.5 196t-159.5 76zM352 679q148 0 237.5 -95.5t89.5 -252.5q0 -158 -89.5 -254t-237.5 -96q-146 0 -234 94t-88 250q0 163 87 258.5t235 95.5zM379 747
v102h85v-102h-85zM243 747v102h85v-102h-85z" />
    <glyph glyph-name="multiply" unicode="&#xd7;" 
d="M102 535l147 -148l138 138l46 -46l-138 -138l147 -147l-46 -46l-146 147l-138 -138l-46 46l138 138l-148 148z" />
    <glyph glyph-name="Oslash" unicode="&#xd8;" horiz-adv-x="709" 
d="M501 540l-260 -451l1 -1q56 -31 115 -31q96 0 159 76.5t63 193.5q0 129 -78 213zM469 566l-1 1q-34 18 -54 24t-50 6q-131 0 -192 -103q-44 -73 -44 -165q0 -66 22 -124q16 -40 58 -91zM512 640l42 72l35 -20l-42 -73q49 -39 76 -80q56 -93 56 -211q0 -157 -89.5 -253
t-236.5 -96q-80 0 -156 34l-47 -80l-35 20l47 81q-45 38 -65.5 65.5t-38.5 69.5q-29 75 -29 158q0 158 89 254t235 96q77 0 159 -37z" />
    <glyph glyph-name="Ugrave" unicode="&#xd9;" horiz-adv-x="672" 
d="M235 873h119l72 -140h-70zM22 666h206v-81h-29q-24 0 -24 -32v-309q0 -79 16 -111q16 -30 55.5 -48t90.5 -18q74 0 112.5 37.5t38.5 108.5v323q0 31 -5 39.5t-23 8.5h-27v82h206v-81h-29q-26 0 -26 -39v-338q0 -106 -66 -164.5t-186 -58.5q-149 0 -212 83q-42 56 -42 155
v324q0 21 -7 29t-24 8h-25v82z" />
    <glyph glyph-name="Uacute" unicode="&#xda;" horiz-adv-x="672" 
d="M304 870h125l-127 -137h-72zM22 666h206v-81h-29q-24 0 -24 -32v-309q0 -79 16 -111q16 -30 55.5 -48t90.5 -18q74 0 112.5 37.5t38.5 108.5v323q0 31 -5 39.5t-23 8.5h-27v82h206v-81h-29q-26 0 -26 -39v-338q0 -106 -66 -164.5t-186 -58.5q-149 0 -212 83
q-42 56 -42 155v324q0 21 -7 29t-24 8h-25v82z" />
    <glyph glyph-name="Ucircumflex" unicode="&#xdb;" horiz-adv-x="672" 
d="M185 733l75 139h143l72 -139h-60l-73 94h-23l-72 -94h-62zM22 666h206v-81h-29q-24 0 -24 -32v-309q0 -79 16 -111q16 -30 55.5 -48t90.5 -18q74 0 112.5 37.5t38.5 108.5v323q0 31 -5 39.5t-23 8.5h-27v82h206v-81h-29q-26 0 -26 -39v-338q0 -106 -66 -164.5t-186 -58.5
q-149 0 -212 83q-42 56 -42 155v324q0 21 -7 29t-24 8h-25v82z" />
    <glyph glyph-name="Udieresis" unicode="&#xdc;" horiz-adv-x="672" 
d="M356 734v102h85v-102h-85zM220 734v102h85v-102h-85zM22 666h206v-81h-29q-24 0 -24 -32v-309q0 -79 16 -111q16 -30 55.5 -48t90.5 -18q74 0 112.5 37.5t38.5 108.5v323q0 31 -5 39.5t-23 8.5h-27v82h206v-81h-29q-26 0 -26 -39v-338q0 -106 -66 -164.5t-186 -58.5
q-149 0 -212 83q-42 56 -42 155v324q0 21 -7 29t-24 8h-25v82z" />
    <glyph glyph-name="Yacute" unicode="&#xdd;" horiz-adv-x="591" 
d="M9 584v82h218v-82h-34q-21 0 -21 -12q0 -4 8 -17l116 -186l112 185q10 17 10 20q0 10 -19 10h-32v82h213v-82h-25q-19 0 -27 -5.5t-22 -28.5l-163 -266v-175q0 -16 5 -21.5t19 -5.5h32v-82h-205v82h34q11 0 15.5 6.5t4.5 22.5v173l-171 276q-15 24 -32 24h-36zM270 872
h125l-127 -137h-72z" />
    <glyph glyph-name="Thorn" unicode="&#xde;" horiz-adv-x="628" 
d="M179 158v-21q0 -39 4.5 -47t24.5 -8h28v-82h-205v82h28q18 0 23 8t5 34v434q0 25 -29 25h-28v83h206v-83h-27q-30 0 -30 -22v-7h44q28 1 65 1q102 0 146 -8t76 -31q36 -27 56 -70t20 -92q0 -87 -53.5 -141.5t-138.5 -54.5h-215zM179 470v-235h185q127 0 127 114
q0 57 -36.5 89t-101.5 32h-174z" />
    <glyph glyph-name="germandbls" unicode="&#xdf;" horiz-adv-x="529" 
d="M20 68h28q16 0 22 5.5t6 19.5v431q0 72 43.5 112t121.5 40q74 0 123.5 -34.5t49.5 -86.5q0 -38 -31 -75q-6 -7 -46 -42q-12 -12 -12 -23q0 -18 22 -35l70 -56q40 -32 63 -74.5t23 -84.5q0 -77 -59.5 -128t-147.5 -51q-36 0 -86 14v75q52 -17 84 -17q52 0 83 28t31 75
q0 66 -67 127l-59 54q-38 35 -38 63q0 20 25 51q34 41 44.5 59t10.5 36q0 25 -22 41.5t-54 16.5q-48 0 -67 -32q-14 -20 -14 -78v-499h-147v68z" />
    <glyph glyph-name="agrave" unicode="&#xe0;" horiz-adv-x="519" 
d="M166 704h119l72 -140h-70zM353 246l-120 -29q-70 -17 -94.5 -34.5t-24.5 -51.5q0 -37 29.5 -61t74.5 -24q58 0 96.5 38t38.5 96v66zM129 322h-79q0 68 16 96q44 79 180 79q93 0 141.5 -34.5t48.5 -99.5v-269q0 -15 6 -20t23 -5h28v-69h-79q-22 0 -32 10.5t-21 44.5
q-50 -41 -86 -56t-84 -15q-74 0 -119.5 38.5t-45.5 100.5q0 116 144 146l129 26q33 7 46.5 19.5t13.5 35.5q0 35 -29.5 56t-78.5 21q-68 0 -94.5 -22.5t-27.5 -82.5z" />
    <glyph glyph-name="aacute" unicode="&#xe1;" horiz-adv-x="519" 
d="M236 701h125l-127 -137h-72zM353 246l-120 -29q-70 -17 -94.5 -34.5t-24.5 -51.5q0 -37 29.5 -61t74.5 -24q58 0 96.5 38t38.5 96v66zM129 322h-79q0 68 16 96q44 79 180 79q93 0 141.5 -34.5t48.5 -99.5v-269q0 -15 6 -20t23 -5h28v-69h-79q-22 0 -32 10.5t-21 44.5
q-50 -41 -86 -56t-84 -15q-74 0 -119.5 38.5t-45.5 100.5q0 116 144 146l129 26q33 7 46.5 19.5t13.5 35.5q0 35 -29.5 56t-78.5 21q-68 0 -94.5 -22.5t-27.5 -82.5z" />
    <glyph glyph-name="acircumflex" unicode="&#xe2;" horiz-adv-x="519" 
d="M117 564l75 139h143l72 -139h-60l-73 94h-23l-72 -94h-62zM353 246l-120 -29q-70 -17 -94.5 -34.5t-24.5 -51.5q0 -37 29.5 -61t74.5 -24q58 0 96.5 38t38.5 96v66zM129 322h-79q0 68 16 96q44 79 180 79q93 0 141.5 -34.5t48.5 -99.5v-269q0 -15 6 -20t23 -5h28v-69h-79
q-22 0 -32 10.5t-21 44.5q-50 -41 -86 -56t-84 -15q-74 0 -119.5 38.5t-45.5 100.5q0 116 144 146l129 26q33 7 46.5 19.5t13.5 35.5q0 35 -29.5 56t-78.5 21q-68 0 -94.5 -22.5t-27.5 -82.5z" />
    <glyph glyph-name="atilde" unicode="&#xe3;" horiz-adv-x="519" 
d="M167 568l-49 18q20 55 38 75.5t46 20.5q14 0 57 -17l33 -13q22 -8 32 -8q9 0 15.5 7t17.5 30l49 -19q-21 -57 -37.5 -77.5t-41.5 -20.5q-31 0 -87 26q-26 12 -39 12q-15 0 -34 -34zM353 246l-120 -29q-70 -17 -94.5 -34.5t-24.5 -51.5q0 -37 29.5 -61t74.5 -24
q58 0 96.5 38t38.5 96v66zM129 322h-79q0 68 16 96q44 79 180 79q93 0 141.5 -34.5t48.5 -99.5v-269q0 -15 6 -20t23 -5h28v-69h-79q-22 0 -32 10.5t-21 44.5q-50 -41 -86 -56t-84 -15q-74 0 -119.5 38.5t-45.5 100.5q0 116 144 146l129 26q33 7 46.5 19.5t13.5 35.5
q0 35 -29.5 56t-78.5 21q-68 0 -94.5 -22.5t-27.5 -82.5z" />
    <glyph glyph-name="adieresis" unicode="&#xe4;" horiz-adv-x="519" 
d="M287 564v102h85v-102h-85zM151 564v102h85v-102h-85zM353 245l-120 -29q-70 -17 -94.5 -34.5t-24.5 -51.5q0 -37 29.5 -61t74.5 -24q58 0 96.5 38t38.5 96v66zM129 322h-79q0 68 16 96q44 79 180 79q93 0 141.5 -34.5t48.5 -99.5v-269q0 -15 6 -20t23 -5h28v-69h-79
q-22 0 -32 10.5t-21 44.5q-50 -41 -86 -56t-84 -15q-74 0 -119.5 38.5t-45.5 100.5q0 116 144 146l129 26q33 7 46.5 19.5t13.5 35.5q0 35 -29.5 56t-78.5 21q-68 0 -94.5 -22.5t-27.5 -82.5z" />
    <glyph glyph-name="aring" unicode="&#xe5;" horiz-adv-x="519" 
d="M262 694q-19 0 -33 -13t-14 -30q0 -19 15 -34.5t33 -15.5t31.5 14t13.5 33t-13.5 32.5t-32.5 13.5zM262 731q34 0 58.5 -24.5t24.5 -58.5t-24.5 -59t-56.5 -25q-30 0 -58 28.5t-28 59.5q0 32 25 55.5t59 23.5zM353 246l-120 -29q-70 -17 -94.5 -34.5t-24.5 -51.5
q0 -37 29.5 -61t74.5 -24q58 0 96.5 38t38.5 96v66zM129 322h-79q0 68 16 96q44 79 180 79q93 0 141.5 -34.5t48.5 -99.5v-269q0 -15 6 -20t23 -5h28v-69h-79q-22 0 -32 10.5t-21 44.5q-50 -41 -86 -56t-84 -15q-74 0 -119.5 38.5t-45.5 100.5q0 116 144 146l129 26
q33 7 46.5 19.5t13.5 35.5q0 35 -29.5 56t-78.5 21q-68 0 -94.5 -22.5t-27.5 -82.5z" />
    <glyph glyph-name="ae" unicode="&#xe6;" horiz-adv-x="833" 
d="M434 283h271q-12 51 -21 68q-17 34 -48 53.5t-69 19.5q-58 0 -93 -40q-27 -29 -40 -101zM355 180v66q-49 -15 -68 -18q-54 -12 -80 -17q-91 -20 -91 -80q0 -37 29.5 -61t74.5 -24q58 0 96.5 38t38.5 96zM131 322h-79q0 65 13 91q40 84 181 84q122 0 172 -60q46 34 74 45
t71 11q153 0 213 -135q20 -48 23 -146h-362q9 -79 36 -112q38 -48 108 -48q79 0 121 92h87q-53 -164 -209 -164q-62 0 -104 20t-89 71l-7.5 -5t-7.5 -6q-63 -47 -97 -61.5t-77 -14.5q-76 0 -123.5 38t-47.5 100q0 80 72 123q21 11 41.5 16.5t102.5 21.5l58 12q61 13 61 54
q0 36 -30.5 57t-82.5 21q-65 0 -90.5 -23t-27.5 -82z" />
    <glyph glyph-name="ccedilla" unicode="&#xe7;" horiz-adv-x="510" 
d="M406 436v44h69v-158h-83q-20 50 -50.5 73.5t-76.5 23.5q-69 0 -106 -49t-37 -140q0 -94 44 -135q39 -39 98 -39q58 0 90 41q18 25 28 74h93q-11 -91 -64 -139.5t-141 -48.5h-4v-49q30 -4 43.5 -18t13.5 -39q0 -63 -81 -63q-22 0 -43 7l4 38q32 -8 44 -8q34 0 34 24
q0 21 -43 21h-17l12 88q-66 10 -106 37q-102 70 -102 215q0 115 65.5 186.5t171.5 71.5q44 0 75.5 -12.5t68.5 -45.5z" />
    <glyph glyph-name="egrave" unicode="&#xe8;" horiz-adv-x="505" 
d="M157 700h119l72 -140h-70zM114 283h271q-12 53 -27 80q-15 28 -45.5 44.5t-64.5 16.5q-67 0 -104 -53q-19 -28 -30 -88zM480 212h-362q8 -64 24 -95q15 -29 47.5 -46.5t72.5 -17.5q44 0 71 21t49 70h88q-23 -71 -57 -106q-55 -58 -154 -58q-107 0 -170.5 69.5
t-63.5 186.5q0 116 62 186.5t164 70.5q69 0 123.5 -35.5t82.5 -99.5q20 -48 23 -146z" />
    <glyph glyph-name="eacute" unicode="&#xe9;" horiz-adv-x="505" 
d="M226 697h125l-127 -137h-72zM114 283h271q-12 53 -27 80q-15 28 -45.5 44.5t-64.5 16.5q-67 0 -104 -53q-19 -28 -30 -88zM480 212h-362q8 -64 24 -95q15 -29 47.5 -46.5t72.5 -17.5q44 0 71 21t49 70h88q-23 -71 -57 -106q-55 -58 -154 -58q-107 0 -170.5 69.5
t-63.5 186.5q0 116 62 186.5t164 70.5q69 0 123.5 -35.5t82.5 -99.5q20 -48 23 -146z" />
    <glyph glyph-name="ecircumflex" unicode="&#xea;" horiz-adv-x="505" 
d="M107 560l75 139h143l72 -139h-60l-73 94h-23l-72 -94h-62zM114 283h271q-12 53 -27 80q-15 28 -45.5 44.5t-64.5 16.5q-67 0 -104 -53q-19 -28 -30 -88zM480 212h-362q8 -64 24 -95q15 -29 47.5 -46.5t72.5 -17.5q44 0 71 21t49 70h88q-23 -71 -57 -106q-55 -58 -154 -58
q-107 0 -170.5 69.5t-63.5 186.5q0 116 62 186.5t164 70.5q69 0 123.5 -35.5t82.5 -99.5q20 -48 23 -146z" />
    <glyph glyph-name="edieresis" unicode="&#xeb;" horiz-adv-x="505" 
d="M277 561v102h85v-102h-85zM141 561v102h85v-102h-85zM114 283h271q-12 53 -27 80q-15 28 -45.5 44.5t-64.5 16.5q-67 0 -104 -53q-19 -28 -30 -88zM480 212h-362q8 -64 24 -95q15 -29 47.5 -46.5t72.5 -17.5q44 0 71 21t49 70h88q-23 -71 -57 -106q-55 -58 -154 -58
q-107 0 -170.5 69.5t-63.5 186.5q0 116 62 186.5t164 70.5q69 0 123.5 -35.5t82.5 -99.5q20 -48 23 -146z" />
    <glyph glyph-name="igrave" unicode="&#xec;" horiz-adv-x="256" 
d="M26 0v68h36q11 0 15 6.5t4 23.5v288q0 14 -4.5 18t-20.5 4h-29v72h147v-382q0 -19 3 -24.5t14 -5.5h38v-68h-203zM33 688h119l72 -140h-70z" />
    <glyph glyph-name="iacute" unicode="&#xed;" horiz-adv-x="256" 
d="M26 0v68h36q11 0 15 6.5t4 23.5v288q0 14 -4.5 18t-20.5 4h-29v72h147v-382q0 -19 3 -24.5t14 -5.5h38v-68h-203zM103 685h125l-127 -137h-72z" />
    <glyph glyph-name="icircumflex" unicode="&#xee;" horiz-adv-x="256" 
d="M26 0v68h36q11 0 15 6.5t4 23.5v288q0 14 -4.5 18t-20.5 4h-29v72h147v-382q0 -19 3 -24.5t14 -5.5h38v-68h-203zM-17 548l75 139h143l72 -139h-60l-73 94h-23l-72 -94h-62z" />
    <glyph glyph-name="idieresis" unicode="&#xef;" horiz-adv-x="256" 
d="M26 0v68h36q11 0 15 6.5t4 23.5v288q0 14 -4.5 18t-20.5 4h-29v72h147v-382q0 -19 3 -24.5t14 -5.5h38v-68h-203zM154 549v102h85v-102h-85zM18 549v102h85v-102h-85z" />
    <glyph glyph-name="eth" unicode="&#xf0;" horiz-adv-x="539" 
d="M278 580l76 21q-12 26 -45 88h68q31 -46 46 -70l95 25l16 -60l-81 -21q61 -133 61 -298q0 -93 -34 -160t-96 -97q-55 -27 -116 -27q-105 0 -173.5 70.5t-68.5 179.5q0 119 63.5 191t168.5 72q54 0 88 -12t70 -44q-18 57 -36 105l-86 -23zM266 420q-66 0 -107 -50
t-41 -131q0 -82 42 -132.5t109 -50.5t108 49t41 130q0 82 -42.5 133.5t-109.5 51.5z" />
    <glyph glyph-name="ntilde" unicode="&#xf1;" horiz-adv-x="598" 
d="M37 0v69h27q29 0 29 30v278v19q0 5 -9.5 10t-19.5 5h-26v69h144v-61q39 43 73.5 58.5t87.5 15.5q84 0 129 -42.5t45 -122.5v-229q0 -21 4 -25.5t23 -4.5h28v-69h-199v69h32q13 0 17 7t4 29v221q0 42 -30 69.5t-76 27.5q-38 0 -71 -18t-49 -46q-7 -13 -15 -58.5t-4 -53.5
q1 -1 1 -3v-145q0 -17 5 -23.5t18 -6.5h31v-69h-199zM209 565l-49 18q20 55 38 75.5t46 20.5q14 0 57 -17l33 -13q22 -8 32 -8q9 0 15.5 7t17.5 30l49 -19q-21 -57 -37.5 -77.5t-41.5 -20.5q-31 0 -87 26q-26 12 -39 12q-15 0 -34 -34z" />
    <glyph glyph-name="ograve" unicode="&#xf2;" horiz-adv-x="539" 
d="M266 420q-67 0 -108 -49.5t-41 -131.5t42 -132t111 -50q68 0 108.5 48.5t40.5 130.5q0 81 -43 132.5t-110 51.5zM262 494q112 0 182 -71.5t70 -185.5q0 -111 -68 -183t-174 -72q-110 0 -178 69t-68 181q0 121 63.5 191.5t172.5 70.5zM173 701h119l72 -140h-70z" />
    <glyph glyph-name="oacute" unicode="&#xf3;" horiz-adv-x="539" 
d="M266 420q-67 0 -108 -50t-41 -131q0 -82 42 -132t110 -50t109 48.5t41 129.5q0 83 -42.5 134t-110.5 51zM262 494q112 0 182 -71.5t70 -185.5q0 -112 -68.5 -183.5t-174.5 -71.5q-109 0 -177 69.5t-68 179.5q0 121 63.5 192t172.5 71zM243 698h125l-127 -137h-72z" />
    <glyph glyph-name="ocircumflex" unicode="&#xf4;" horiz-adv-x="539" 
d="M266 420q-67 0 -108 -50t-41 -131q0 -82 42 -132t110 -50t109 48.5t41 129.5q0 82 -42.5 133.5t-110.5 51.5zM262 494q112 0 182 -71.5t70 -184.5t-68 -184.5t-174 -71.5q-110 0 -178 69t-68 180q0 121 63.5 192t172.5 71zM124 561l75 139h143l72 -139h-60l-73 94h-23
l-72 -94h-62z" />
    <glyph glyph-name="otilde" unicode="&#xf5;" horiz-adv-x="539" 
d="M266 420q-67 0 -108 -50t-41 -131q0 -82 42 -132t110 -50t109 48.5t41 129.5q0 83 -42.5 134t-110.5 51zM262 494q112 0 182 -71.5t70 -185.5q0 -112 -68.5 -183.5t-174.5 -71.5q-109 0 -177 69.5t-68 179.5q0 121 63.5 192t172.5 71zM174 565l-49 18q19 54 37 75t47 21
q13 0 57 -17l33 -13q22 -8 32 -8q9 0 15.5 7t17.5 30l49 -19q-22 -57 -38.5 -77.5t-41.5 -20.5q-30 0 -86 26q-26 12 -40 12t-33 -34z" />
    <glyph glyph-name="odieresis" unicode="&#xf6;" horiz-adv-x="539" 
d="M265 420q-66 0 -107 -50t-41 -131q0 -82 42 -132t111 -50q68 0 108.5 48.5t40.5 129.5q0 82 -43 133.5t-111 51.5zM262 494q112 0 182 -71.5t70 -184.5q0 -112 -68 -184t-173 -72q-110 0 -178.5 69t-68.5 180q0 121 63.5 192t172.5 71zM294 562v102h85v-102h-85zM158 562
v102h85v-102h-85z" />
    <glyph glyph-name="divide" unicode="&#xf7;" 
d="M9 374h481v-65h-481v65zM249 207q23 0 38.5 -15.5t15.5 -38.5q0 -22 -16 -37.5t-38 -15.5t-37.5 15.5t-15.5 37.5t15.5 38t37.5 16zM249 582q23 0 38.5 -16t15.5 -38t-16 -37.5t-38 -15.5t-37.5 15.5t-15.5 37.5t15.5 38t37.5 16z" />
    <glyph glyph-name="oslash" unicode="&#xf8;" horiz-adv-x="539" 
d="M373 373l-172 -300q30 -16 66 -16q69 0 110.5 49.5t41.5 131.5q0 42 -10 72t-36 63zM169 98l172 300q-41 22 -77 22q-65 0 -105.5 -50.5t-40.5 -130.5q0 -84 51 -141zM381 467l35 61l35 -17l-36 -64q99 -75 99 -212q0 -112 -69.5 -182.5t-179.5 -70.5q-53 0 -104 22
l-40 -70l-36 20l41 70q-35 25 -57 57q-44 66 -44 158q0 115 66 185t173 70q62 0 117 -27z" />
    <glyph glyph-name="ugrave" unicode="&#xf9;" horiz-adv-x="581" 
d="M17 412v70h148v-330q0 -46 27.5 -72t76.5 -26q83 0 117 63q20 37 20 110v162q0 23 -29 23h-25v70h147v-387q0 -17 4.5 -22t20.5 -5h25v-68h-144v55q-70 -73 -160 -73q-40 0 -77 13.5t-58 35.5q-38 41 -38 120v237q0 14 -6.5 19t-23.5 5h-25zM187 689h119l72 -140h-70z
" />
    <glyph glyph-name="uacute" unicode="&#xfa;" horiz-adv-x="581" 
d="M17 412v70h148v-330q0 -46 27.5 -72t76.5 -26q73 0 110 51q27 37 27 122v162q0 23 -29 23h-25v70h147v-387q0 -17 4.5 -22t20.5 -5h25v-68h-144v55q-70 -73 -159 -73q-96 0 -141 55q-33 41 -33 114v237q0 14 -6.5 19t-23.5 5h-25zM257 686h125l-127 -137h-72z" />
    <glyph glyph-name="ucircumflex" unicode="&#xfb;" horiz-adv-x="581" 
d="M17 412v70h148v-330q0 -46 28 -72.5t76 -26.5q38 0 69.5 17t47.5 47q20 36 20 110v162q0 23 -29 23h-25v70h147v-387q0 -17 4.5 -22t20.5 -5h25v-68h-144v55q-38 -40 -75 -56.5t-87 -16.5q-54 0 -95 21.5t-59 58.5q-17 36 -17 89v237q0 14 -6.5 19t-23.5 5h-25zM138 549
l75 139h143l72 -139h-60l-73 94h-23l-72 -94h-62z" />
    <glyph glyph-name="udieresis" unicode="&#xfc;" horiz-adv-x="581" 
d="M17 412v70h148v-330q0 -46 27.5 -72t76.5 -26q83 0 117 63q20 37 20 110v162q0 23 -29 23h-25v70h147v-387q0 -17 4.5 -22t20.5 -5h25v-68h-144v55q-70 -73 -159 -73q-59 0 -106 26q-68 38 -68 143v237q0 14 -6.5 19t-23.5 5h-25zM308 550v102h85v-102h-85zM172 550v102
h85v-102h-85z" />
    <glyph glyph-name="yacute" unicode="&#xfd;" horiz-adv-x="515" 
d="M8 483h200v-73h-31q-19 0 -19 -11v-1l1 -1v-2l98 -285l97 284v3h1v3q0 9 -18 9h-32v74h203v-73h-38q-21 0 -26 -16l-162 -454q-21 -59 -44 -80t-67 -21h-83v69h61q34 0 47 32l18 47l-145 407q-4 10 -8.5 12.5t-18.5 2.5h-34v74zM234 684h125l-127 -137h-72z" />
    <glyph glyph-name="thorn" unicode="&#xfe;" horiz-adv-x="551" 
d="M170 48v-108q0 -23 2.5 -27.5t14.5 -4.5h35v-69h-201v69h33q14 0 18.5 7t4.5 30v623q0 27 -29 27h-26v68h148v-246q33 44 64.5 61t81.5 17q93 0 151 -70.5t58 -183.5q0 -144 -86 -214q-55 -46 -129 -46q-41 0 -71.5 14.5t-68.5 52.5zM301 419q-65 0 -106.5 -50
t-41.5 -128q0 -81 48 -140q39 -48 97 -48q52 0 91 42q19 20 30.5 61.5t11.5 86.5q0 85 -33.5 130.5t-96.5 45.5z" />
    <glyph glyph-name="ydieresis" unicode="&#xff;" horiz-adv-x="515" 
d="M8 483h200v-73h-31q-19 0 -19 -11v-1l1 -1v-2l98 -285l97 284v3h1v3q0 9 -18 9h-32v74h203v-73h-38q-21 0 -26 -16l-162 -454q-21 -59 -44 -80t-67 -21h-83v69h61q34 0 47 32l18 47l-145 407q-4 10 -8.5 12.5t-18.5 2.5h-34v74zM283 551v102h85v-102h-85zM147 551v102h85
v-102h-85z" />
    <glyph glyph-name="Amacron" unicode="&#x100;" horiz-adv-x="677" 
d="M229 276h214l-109 283zM9 0v83h32q20 0 25 12l177 451q7 20 7 25q0 12 -21 12h-32v83h186l214 -541q7 -16 9 -23q5 -12 10.5 -15.5t21.5 -3.5h29v-83h-210v83h31q15 0 19 2t4 8t-12 38l-28 71h-266l-30 -78q-11 -30 -11 -31q0 -10 32 -10h24v-83h-211zM205 735v79h229
v-79h-229z" />
    <glyph glyph-name="amacron" unicode="&#x101;" horiz-adv-x="519" 
d="M353 246l-120 -29q-70 -17 -94.5 -34.5t-24.5 -51.5q0 -37 29.5 -61t74.5 -24q58 0 96.5 38t38.5 96v66zM129 322h-79q0 68 16 96q44 79 180 79q93 0 141.5 -34.5t48.5 -99.5v-269q0 -15 6 -20t23 -5h28v-71h-79q-20 0 -31.5 12t-21.5 45q-50 -41 -86 -56t-84 -15
q-74 0 -119.5 38.5t-45.5 100.5q0 116 144 146l129 26q33 7 46.5 19.5t13.5 35.5q0 35 -29.5 56t-78.5 21q-68 0 -94.5 -22.5t-27.5 -82.5zM144 564v79h229v-79h-229z" />
    <glyph glyph-name="Abreve" unicode="&#x102;" horiz-adv-x="677" 
d="M229 275h214l-109 284zM9 0v83h32q20 0 25 12l177 451q7 20 7 25q0 12 -21 12h-32v83h186l214 -541q7 -16 9 -23q5 -12 10.5 -15.5t21.5 -3.5h29v-83h-210v83h31q15 0 19 2t4 8t-12 38l-28 71h-266l-30 -78q-11 -30 -11 -31q0 -10 32 -10h24v-83h-211zM436 854h36
q-22 -119 -136 -119q-58 0 -92.5 30.5t-41.5 88.5h37q19 -77 99 -77q41 0 64 18t34 59z" />
    <glyph glyph-name="abreve" unicode="&#x103;" horiz-adv-x="519" 
d="M353 246l-120 -29q-70 -17 -94.5 -34.5t-24.5 -51.5q0 -37 29.5 -61t74.5 -24q58 0 96.5 38t38.5 96v66zM129 322h-79q0 68 16 96q44 79 180 79q93 0 141.5 -34.5t48.5 -99.5v-269q0 -15 6 -20t23 -5h28v-69h-79q-22 0 -32 10.5t-21 44.5q-50 -41 -86 -56t-84 -15
q-74 0 -119.5 38.5t-45.5 100.5q0 116 144 146l129 26q33 7 46.5 19.5t13.5 35.5q0 35 -29.5 56t-78.5 21q-68 0 -94.5 -22.5t-27.5 -82.5zM357 683h36q-22 -119 -136 -119q-59 0 -93.5 30.5t-40.5 88.5h37q20 -77 99 -77q41 0 63.5 18t34.5 59z" />
    <glyph glyph-name="Aogonek" unicode="&#x104;" horiz-adv-x="677" 
d="M566 0h-109v83h31q15 0 19 2t4 8t-12 38l-28 71h-266l-30 -78q-11 -30 -11 -31q0 -10 32 -10h24v-83h-211v83h32q20 0 25 12l177 451q7 16 7 25q0 12 -21 12h-32v83h186l214 -541q7 -16 9 -23q5 -12 10.5 -15.5t21.5 -3.5h29v-83h-32q-10 -4 -16 -6q-31 -11 -44 -24.5
t-13 -34.5q0 -36 45 -36q13 0 54 9l5 -47q-32 -9 -54 -9q-49 0 -75 20.5t-26 58.5q0 53 55 69zM229 275h214l-109 283z" />
    <glyph glyph-name="aogonek" unicode="&#x105;" horiz-adv-x="519" 
d="M424 0l-13 -1q-18 -1 -28.5 11.5t-21.5 44.5q-51 -41 -86.5 -56t-83.5 -15q-73 0 -118.5 38.5t-45.5 100.5q0 117 143 146l129 26q33 7 46.5 19.5t13.5 35.5q0 35 -29.5 56t-78.5 21q-68 0 -94 -22.5t-28 -82.5h-79q0 68 16 96q45 79 180 79q93 0 141.5 -34.5t48.5 -99.5
v-269q0 -15 6 -20t23 -5h28v-69h-11q-47 -16 -63 -30t-16 -38q0 -16 11.5 -26t28.5 -10q23 0 40 10l14 -3q2 1 5 2l5 -47q-30 -9 -54 -9q-49 0 -75 20.5t-26 58.5q0 32 16.5 48.5t55.5 23.5zM353 246l-120 -29q-70 -17 -94.5 -34.5t-24.5 -51.5q0 -37 29.5 -61t74.5 -24
q58 0 96.5 38t38.5 96v66z" />
    <glyph glyph-name="Cacute" unicode="&#x106;" horiz-adv-x="664" 
d="M538 607v59h81v-201h-87q-26 55 -41 72q-52 60 -142 60q-98 0 -157.5 -72.5t-59.5 -190.5q0 -122 59.5 -199t154.5 -77q90 0 143 64q18 22 27 49.5t15 77.5h98q-7 -69 -21 -108t-43 -71q-39 -43 -97 -67.5t-123 -24.5q-137 0 -225 98.5t-88 252.5q0 158 87 253t232 95
q56 0 94.5 -14.5t92.5 -55.5zM306 872h125l-127 -137h-72z" />
    <glyph glyph-name="cacute" unicode="&#x107;" horiz-adv-x="510" 
d="M406 480h69v-158h-83q-20 50 -50.5 73.5t-76.5 23.5q-68 0 -105.5 -48.5t-37.5 -136.5q0 -71 22 -112q16 -30 49 -47.5t71 -17.5q50 0 77.5 26.5t40.5 87.5h93q-5 -44 -15 -69t-31 -50q-59 -69 -164 -69q-109 0 -174.5 68.5t-65.5 183.5q0 116 65.5 187.5t171.5 71.5
q44 0 75 -12.5t69 -45.5v44zM229 710h125l-127 -137h-72z" />
    <glyph glyph-name="Ccaron" unicode="&#x10c;" horiz-adv-x="664" 
d="M538 607v59h81v-201h-87q-26 55 -41 72q-52 60 -142 60q-98 0 -157.5 -72.5t-59.5 -190.5q0 -122 59.5 -199t154.5 -77q90 0 143 64q18 22 27 49.5t15 77.5h98q-7 -69 -21 -108t-43 -71q-39 -43 -97 -67.5t-123 -24.5q-137 0 -225 98.5t-88 252.5q0 158 87 253t232 95
q56 0 94.5 -14.5t92.5 -55.5zM477 874l-75 -139h-143l-72 139h60l73 -94h23l72 94h62z" />
    <glyph glyph-name="ccaron" unicode="&#x10d;" horiz-adv-x="510" 
d="M406 480h69v-158h-83q-20 50 -50.5 73.5t-76.5 23.5q-68 0 -105.5 -48.5t-37.5 -136.5q0 -71 22 -112q16 -30 49 -47.5t71 -17.5q50 0 77.5 26.5t40.5 87.5h93q-5 -44 -15 -69t-31 -50q-59 -69 -164 -69q-109 0 -174.5 68.5t-65.5 183.5q0 116 65.5 187.5t171.5 71.5
q44 0 75 -12.5t69 -45.5v44zM400 668l-75 -139h-143l-72 139h60l73 -94h23l72 94h62z" />
    <glyph glyph-name="Dcaron" unicode="&#x10e;" horiz-adv-x="648" 
d="M182 82h142q96 0 145.5 64.5t49.5 189.5q0 120 -47 184t-136 64h-154v-502zM31 0v82h23q21 0 27.5 10t6.5 42v407q0 27 -5 35t-22 8h-29v82h290q158 0 231 -103q63 -87 63 -215q0 -173 -87 -271q-30 -34 -82.5 -55.5t-108.5 -21.5h-307zM415 874l-75 -139h-143l-72 139
h60l73 -94h23l72 94h62z" />
    <glyph glyph-name="dcaron" unicode="&#x10f;" horiz-adv-x="553" 
d="M254 419q-60 0 -95.5 -48.5t-35.5 -130.5q0 -85 35 -134.5t95 -49.5q62 0 102.5 51t40.5 130q0 68 -22 112q-16 31 -50 50.5t-70 19.5zM383 425v149q0 22 -27 22h-30v70h149v-561q0 -23 4.5 -30t18.5 -7h31v-68h-140v60q-71 -78 -152 -78q-90 0 -150 73.5t-60 183.5
q0 111 60 184t152 73q44 0 76 -15.5t68 -55.5zM548 420v55q24 22 31 35.5t7 40.5v10h-38v103h99v-90q0 -112 -99 -154z" />
    <glyph glyph-name="Dcroat" unicode="&#x110;" horiz-adv-x="648" 
d="M182 296v-214h142q195 0 195 254q0 120 -47 184t-136 64h-154v-177h152v-111h-152zM88 407v134q0 27 -5 35t-22 8h-29v82h290q156 0 231 -103q63 -87 63 -214q0 -174 -87 -272q-30 -34 -82.5 -55.5t-108.5 -21.5h-307v82h23q21 0 27.5 10t6.5 42v162h-57v111h57z" />
    <glyph glyph-name="dcroat" unicode="&#x111;" horiz-adv-x="553" 
d="M475 507v-402q0 -23 4.5 -30t18.5 -7h31v-68h-140v60q-71 -78 -152 -78q-90 0 -150 73.5t-60 183.5q0 112 60 184.5t152 72.5q44 0 75.5 -15.5t68.5 -55.5v82h-101v62h101v4q0 23 -27 23h-30v70h149v-97h58v-62h-58zM254 419q-60 0 -95.5 -48.5t-35.5 -130.5
q0 -85 35 -134.5t95 -49.5q62 0 102.5 51t40.5 130q0 68 -22 112q-16 31 -50 50.5t-70 19.5z" />
    <glyph glyph-name="Emacron" unicode="&#x112;" horiz-adv-x="596" 
d="M30 583v83h528v-137h-82v33q0 21 -40 21h-255v-195h335v-79h-335v-225h274q17 0 23.5 5.5t6.5 18.5v30h83v-138h-537v83h30q16 0 21 8.5t5 36.5v407q0 28 -5.5 38t-20.5 10h-31zM184 735v79h229v-79h-229z" />
    <glyph glyph-name="emacron" unicode="&#x113;" horiz-adv-x="505" 
d="M114 283h271q-12 53 -27 80q-15 28 -45.5 44.5t-64.5 16.5q-67 0 -104 -53q-19 -28 -30 -88zM480 212h-362q8 -64 24 -95q15 -29 47.5 -46.5t72.5 -17.5q44 0 71 21t49 70h88q-23 -71 -57 -106q-55 -58 -154 -58q-107 0 -170.5 69.5t-63.5 186.5q0 116 62 186.5t164 70.5
q69 0 123.5 -35.5t82.5 -99.5q20 -48 23 -146zM140 558v79h229v-79h-229z" />
    <glyph glyph-name="Edotaccent" unicode="&#x116;" horiz-adv-x="596" 
d="M30 583v83h528v-137h-82v33q0 21 -40 21h-255v-195h335v-79h-335v-225h274q17 0 23.5 5.5t6.5 18.5v30h83v-138h-537v83h30q16 0 21 8.5t5 36.5v407q0 28 -5.5 38t-20.5 10h-31zM262 735v86h71v-86h-71z" />
    <glyph glyph-name="edotaccent" unicode="&#x117;" horiz-adv-x="505" 
d="M114 283h271q-12 53 -27 80q-15 28 -45.5 44.5t-64.5 16.5q-67 0 -104 -53q-19 -28 -30 -88zM480 212h-362q8 -64 24 -95q15 -29 47.5 -46.5t72.5 -17.5q44 0 71 21t49 70h88q-23 -71 -57 -106q-55 -58 -154 -58q-107 0 -170.5 69.5t-63.5 186.5q0 116 62 186.5t164 70.5
q69 0 123.5 -35.5t82.5 -99.5q20 -48 23 -146zM217 567v86h71v-86h-71z" />
    <glyph glyph-name="Eogonek" unicode="&#x118;" horiz-adv-x="596" 
d="M455 0h-424v83h30q16 0 21 8.5t5 36.5v407q0 28 -5.5 38t-20.5 10h-31v83h528v-137h-82v33q0 21 -40 21h-255v-195h335v-79h-335v-225h274q17 0 23.5 5.5t6.5 18.5v30h83v-138h-52q-3 -1 -6.5 -3t-6 -3t-3.5 -1q-31 -13 -37 -16.5t-12 -11.5q-10 -13 -10 -31
q0 -36 45 -36q15 0 54 9l5 -47q-31 -9 -54 -9q-49 0 -75 20.5t-26 58.5q0 31 15 47t50 23z" />
    <glyph glyph-name="eogonek" unicode="&#x119;" horiz-adv-x="505" 
d="M340 -108l5 -47q-31 -9 -54 -9q-49 0 -75 20.5t-26 58.5q0 48 44 66q-59 11 -92 26.5t-56 43.5q-61 71 -61 185q0 116 62 186.5t164 70.5q69 0 123.5 -35.5t82.5 -99.5q20 -48 23 -146h-362q8 -64 24 -95q15 -29 47.5 -46.5t72.5 -17.5q44 0 71 21t49 70h88
q-25 -74 -58 -107t-112 -59q-33 -11 -46 -24t-13 -35q0 -36 45 -36q11 0 54 9zM114 283h271q-12 53 -27 80q-15 28 -45.5 44.5t-64.5 16.5q-67 0 -104 -53q-19 -28 -30 -88z" />
    <glyph glyph-name="Ecaron" unicode="&#x11a;" horiz-adv-x="596" 
d="M30 583v83h528v-137h-82v33q0 21 -40 21h-255v-195h335v-79h-335v-225h274q17 0 23.5 5.5t6.5 18.5v30h83v-138h-537v83h30q16 0 21 8.5t5 36.5v407q0 28 -5.5 38t-20.5 10h-31zM443 874l-75 -139h-143l-72 139h60l73 -94h23l72 94h62z" />
    <glyph glyph-name="ecaron" unicode="&#x11b;" horiz-adv-x="505" 
d="M114 283h271q-12 53 -27 80q-15 28 -45.5 44.5t-64.5 16.5q-67 0 -104 -53q-19 -28 -30 -88zM480 212h-362q8 -64 24 -95q15 -29 47.5 -46.5t72.5 -17.5q44 0 71 21t49 70h88q-23 -71 -57 -106q-55 -58 -154 -58q-107 0 -170.5 69.5t-63.5 186.5q0 116 62 186.5t164 70.5
q69 0 123.5 -35.5t82.5 -99.5q20 -48 23 -146zM397 668l-75 -139h-143l-72 139h60l73 -94h23l72 94h62z" />
    <glyph glyph-name="Gbreve" unicode="&#x11e;" horiz-adv-x="698" 
d="M546 605v61h83v-203h-93q-14 38 -25 56t-30 34q-57 46 -136 46q-73 0 -127 -43q-80 -65 -80 -216q0 -123 53 -200t155 -77q68 0 120.5 35.5t68.5 92.5q7 28 11 83h-197v84h295v-360h-66l-24 75q-28 -28 -46 -41q-69 -50 -165 -50q-134 0 -220 99.5t-86 255.5
q0 190 117 281q80 61 187 61q108 0 181 -55q6 -5 24 -19zM447 854h36q-22 -119 -136 -119q-59 0 -93.5 30.5t-40.5 88.5h37q19 -77 99 -77q41 0 63.5 18t34.5 59z" />
    <glyph glyph-name="gbreve" unicode="&#x11f;" horiz-adv-x="551" 
d="M255 421q-43 0 -67 -12t-43 -44q-29 -53 -29 -109q0 -76 41 -132q30 -43 100 -43q65 0 102 44t37 122q0 83 -37 128.5t-104 45.5zM388 482h138v-72h-24q-17 0 -24 -5.5t-7 -19.5v-326q0 -73 -5.5 -104t-21.5 -53q-49 -70 -193 -70q-136 0 -179 71q-12 20 -22 67h93
q8 -37 30 -50.5t75 -13.5q72 0 101 21.5t29 76.5v69q-46 -41 -73.5 -54.5t-67.5 -13.5q-88 0 -150 72.5t-62 176.5q0 93 52 165q58 79 160 79q49 0 82.5 -17t68.5 -60v61zM365 690h36q-21 -119 -136 -119q-58 0 -92.5 30.5t-41.5 88.5h37q20 -77 99 -77q41 0 64 18t34 59z
" />
    <glyph glyph-name="Gcommaaccent" unicode="&#x122;" horiz-adv-x="698" 
d="M546 605v61h83v-203h-93q-14 38 -25 56t-30 34q-57 46 -136 46q-73 0 -127 -43q-80 -65 -80 -216q0 -123 53 -200t155 -77q68 0 120.5 35.5t68.5 92.5q7 28 11 83h-197v84h295v-360h-66l-24 75q-28 -28 -46 -41q-69 -50 -165 -50q-134 0 -220 99.5t-86 255.5
q0 190 117 281q80 61 187 61q108 0 181 -55q6 -5 24 -19zM300 -391v55q24 22 31 35.5t7 40.5v10h-38v103h99v-90q0 -112 -99 -154z" />
    <glyph glyph-name="gcommaaccent" unicode="&#x123;" horiz-adv-x="551" 
d="M255 421q-43 0 -67 -12t-43 -44q-29 -53 -29 -109q0 -76 41 -132q30 -43 100 -43q65 0 102 44t37 122q0 83 -37 128.5t-104 45.5zM388 482h138v-72h-24q-17 0 -24 -5.5t-7 -19.5v-326q0 -73 -5.5 -104t-21.5 -53q-49 -70 -193 -70q-136 0 -179 71q-12 20 -22 67h93
q8 -37 30 -50.5t75 -13.5q72 0 101 21.5t29 76.5v69q-46 -41 -73.5 -54.5t-67.5 -13.5q-88 0 -150 72.5t-62 176.5q0 93 52 165q58 79 160 79q49 0 82.5 -17t68.5 -60v61zM327 839v-55q-24 -22 -31 -35.5t-7 -40.5v-10h38v-103h-99v90q0 112 99 154z" />
    <glyph glyph-name="Imacron" unicode="&#x12a;" horiz-adv-x="269" 
d="M30 583v83h206v-83h-27q-30 0 -30 -23v-423q0 -39 4.5 -47t24.5 -8h28v-82h-205v82h28q18 0 23 8t5 34v433q0 26 -29 26h-28zM20 735v79h229v-79h-229z" />
    <glyph glyph-name="imacron" unicode="&#x12b;" horiz-adv-x="256" 
d="M26 0v68h36q11 0 15 6.5t4 23.5v288q0 14 -4.5 18t-20.5 4h-29v72h147v-382q0 -19 3 -24.5t14 -5.5h38v-68h-203zM14 522v79h229v-79h-229z" />
    <glyph glyph-name="Iogonek" unicode="&#x12e;" horiz-adv-x="269" 
d="M144 0h-113v82h28q18 0 23 8t5 34v433q0 26 -29 26h-28v83h206v-83h-27q-30 0 -30 -23v-423q0 -39 4.5 -47t24.5 -8h28v-82h-26q-16 -8 -19 -9q-29 -12 -36 -15.5t-13 -11.5q-10 -15 -10 -31q0 -36 45 -36q13 0 54 9l5 -47q-29 -9 -54 -9q-49 0 -75 20.5t-26 58.5
q0 29 14.5 45.5t48.5 25.5z" />
    <glyph glyph-name="iogonek" unicode="&#x12f;" horiz-adv-x="256" 
d="M124 0h-98v68h36q11 0 15 6.5t4 23.5v288q0 14 -4.5 18t-20.5 4h-29v72h147v-382q0 -19 3 -24.5t14 -5.5h38v-68h-38q-76 -20 -76 -66q0 -36 45 -36q16 0 54 9l5 -47q-31 -9 -54 -9q-49 0 -75 20.5t-26 58.5q0 61 60 70z" />
    <glyph glyph-name="Idotaccent" unicode="&#x130;" horiz-adv-x="269" 
d="M30 583v83h206v-83h-27q-30 0 -30 -23v-423q0 -39 4.5 -47t24.5 -8h28v-82h-205v82h28q18 0 23 8t5 34v433q0 26 -29 26h-28zM99 735v86h71v-86h-71z" />
    <glyph glyph-name="dotlessi" unicode="&#x131;" horiz-adv-x="256" 
d="M26 0v68h36q11 0 15 6.5t4 23.5v288q0 14 -4.5 18t-20.5 4h-29v72h147v-382q0 -19 3 -24.5t14 -5.5h38v-68h-203z" />
    <glyph glyph-name="Kcommaaccent" unicode="&#x136;" horiz-adv-x="665" 
d="M31 0v82h31q16 0 20 9t4 50v387q0 38 -4 47t-20 9h-30v82h208v-82h-35q-14 0 -18.5 -8.5t-4.5 -34.5v-193l207 200q24 24 24 28q0 8 -24 8h-32v82h250v-82h-34q-25 0 -49 -23l-172 -164l220 -282q19 -24 25.5 -28.5t25.5 -4.5h36v-82h-241v82h37q21 0 21 8q0 1 -26 36
l-161 213l-107 -103v-110q0 -27 5 -35.5t22 -8.5h30v-82h-208zM283 -391v55q24 22 31 35.5t7 40.5v10h-38v103h99v-90q0 -112 -99 -154z" />
    <glyph glyph-name="kcommaaccent" unicode="&#x137;" horiz-adv-x="540" 
d="M24 595v71h145v-374l104 96q12 12 12 17q0 7 -21 7h-29v71h238v-71h-42q-13 0 -29 -15l-94 -84l148 -226q12 -18 32 -18h40v-69h-225v69h37q19 0 19 9q0 6 -8 18l-107 161l-75 -69v-91q0 -28 24 -28h31v-69h-199v69h33q14 0 18.5 7.5t4.5 31.5v460q0 27 -31 27h-26z
M221 -365v55q24 22 31 35.5t7 40.5v10h-38v103h99v-90q0 -112 -99 -154z" />
    <glyph glyph-name="Lacute" unicode="&#x139;" horiz-adv-x="541" 
d="M32 84h30q11 0 22 8q1 3 2 14v44v384q0 32 -4.5 41.5t-19.5 9.5h-31v81h203v-81h-25q-29 0 -29 -25v-476h230q28 0 28 28v27h82v-139h-488v84zM245 872h125l-127 -137h-72z" />
    <glyph glyph-name="lacute" unicode="&#x13a;" horiz-adv-x="256" 
d="M26 0v69h33q14 0 18.5 7t4.5 30v462q0 27 -29 27h-26v68h148v-562q0 -23 2.5 -27.5t14.5 -4.5h35v-69h-201zM154 866h125l-127 -137h-72z" />
    <glyph glyph-name="Lcommaaccent" unicode="&#x13b;" horiz-adv-x="541" 
d="M32 84h30q11 0 22 8q1 3 2 14v44v384q0 32 -4.5 41.5t-19.5 9.5h-31v81h203v-81h-25q-29 0 -29 -25v-476h230q28 0 28 28v27h82v-139h-488v84zM221 -391v55q24 22 31 35.5t7 40.5v10h-38v103h99v-90q0 -112 -99 -154z" />
    <glyph glyph-name="lcommaaccent" unicode="&#x13c;" horiz-adv-x="256" 
d="M26 0v69h33q14 0 18.5 7t4.5 30v462q0 27 -29 27h-26v68h148v-562q0 -23 2.5 -27.5t14.5 -4.5h35v-69h-201zM79 -365v55q24 22 31 35.5t7 40.5v10h-38v103h99v-90q0 -112 -99 -154z" />
    <glyph glyph-name="Lcaron" unicode="&#x13d;" horiz-adv-x="541" 
d="M32 84h30q11 0 22 8q1 3 2 14v44v384q0 32 -4.5 41.5t-19.5 9.5h-31v81h203v-81h-25q-29 0 -29 -25v-476h230q28 0 28 28v27h82v-139h-488v84zM281 421v55q24 22 31 35.5t7 40.5v10h-38v103h99v-90q0 -112 -99 -154z" />
    <glyph glyph-name="lcaron" unicode="&#x13e;" horiz-adv-x="256" 
d="M26 0v69h33q14 0 18.5 7t4.5 30v462q0 27 -29 27h-26v68h148v-562q0 -23 2.5 -27.5t14.5 -4.5h35v-69h-201zM229 418v55q24 22 31 35.5t7 40.5v10h-38v103h99v-90q0 -112 -99 -154z" />
    <glyph glyph-name="Lslash" unicode="&#x141;" horiz-adv-x="541" 
d="M86 290v244q0 32 -4.5 41.5t-19.5 9.5h-31v81h203v-81h-25q-29 0 -29 -25v-173l53 55v-72l-53 -55v-231h230q28 0 28 28v27h82v-139h-488v84h30q11 0 22 8q1 3 2 14v44v69l-54 -56v72z" />
    <glyph glyph-name="lslash" unicode="&#x142;" horiz-adv-x="256" 
d="M175 333v-232q0 -23 2.5 -27.5t14.5 -4.5h35v-69h-201v69h33q14 0 18.5 7t4.5 30v101l-55 -74v77l55 74v284q0 27 -29 27h-26v68h148v-253l52 70v-77z" />
    <glyph glyph-name="Nacute" unicode="&#x143;" horiz-adv-x="690" 
d="M29 584v82h152l331 -506v367q0 42 -3.5 49.5t-22.5 7.5h-29v82h203v-81h-30q-26 0 -26 -31v-554h-92l-336 510v-389q0 -23 4.5 -30.5t20.5 -7.5h31v-83h-202v83h28q16 0 22 6.5t6 23.5v414q0 41 -4 49t-24 8h-29zM319 872h125l-127 -137h-72z" />
    <glyph glyph-name="nacute" unicode="&#x144;" horiz-adv-x="598" 
d="M37 0v69h27q29 0 29 30v262q0 30 -1 35.5t-7 8.5q-10 6 -21 6h-26v69h144v-61q39 43 73.5 58.5t87.5 15.5q84 0 129 -42.5t45 -122.5v-229q0 -21 4 -25.5t23 -4.5h28v-69h-199v69h32q13 0 17 7t4 29v221q0 42 -30 69.5t-76 27.5q-38 0 -71 -18t-49 -46q-7 -13 -15 -58.5
t-4 -53.5q1 -1 1 -3v-145q0 -17 5 -23.5t18 -6.5h31v-69h-199zM273 710h125l-127 -137h-72z" />
    <glyph glyph-name="Ncommaaccent" unicode="&#x145;" horiz-adv-x="690" 
d="M29 584v82h152l331 -506v367q0 42 -3.5 49.5t-22.5 7.5h-29v82h203v-81h-30q-26 0 -26 -31v-554h-92l-336 510v-389q0 -23 4.5 -30.5t20.5 -7.5h31v-83h-202v83h28q16 0 22 6.5t6 23.5v414q0 41 -4 49t-24 8h-29zM296 -391v55q24 22 31 35.5t7 40.5v10h-38v103h99v-90
q0 -112 -99 -154z" />
    <glyph glyph-name="ncommaaccent" unicode="&#x146;" horiz-adv-x="598" 
d="M37 0v69h27q29 0 29 30v262q0 30 -1 35.5t-7 8.5q-10 6 -21 6h-26v69h144v-61q39 43 73.5 58.5t87.5 15.5q84 0 129 -42.5t45 -122.5v-229q0 -21 4 -25.5t23 -4.5h28v-69h-199v69h32q13 0 17 7t4 29v221q0 42 -30 69.5t-76 27.5q-38 0 -71 -18t-49 -46q-7 -13 -15 -58.5
t-4 -53.5q1 -1 1 -3v-145q0 -17 5 -23.5t18 -6.5h31v-69h-199zM250 -365v55q24 22 31 35.5t7 40.5v10h-38v103h99v-90q0 -112 -99 -154z" />
    <glyph glyph-name="Ncaron" unicode="&#x147;" horiz-adv-x="690" 
d="M29 584v82h152l331 -506v367q0 42 -3.5 49.5t-22.5 7.5h-29v82h203v-81h-30q-26 0 -26 -31v-554h-92l-336 510v-389q0 -23 4.5 -30.5t20.5 -7.5h31v-83h-202v83h28q16 0 22 6.5t6 23.5v414q0 41 -4 49t-24 8h-29zM490 874l-75 -139h-143l-72 139h60l73 -94h23l72 94h62z
" />
    <glyph glyph-name="ncaron" unicode="&#x148;" horiz-adv-x="598" 
d="M37 0v69h27q29 0 29 30v262q0 30 -1 35.5t-7 8.5q-10 6 -21 6h-26v69h144v-61q39 43 73.5 58.5t87.5 15.5q84 0 129 -42.5t45 -122.5v-229q0 -21 4 -25.5t23 -4.5h28v-69h-199v69h32q13 0 17 7t4 29v221q0 42 -30 69.5t-76 27.5q-38 0 -71 -18t-49 -46q-7 -13 -15 -58.5
t-4 -53.5q1 -1 1 -3v-145q0 -17 5 -23.5t18 -6.5h31v-69h-199zM450 696l-75 -139h-143l-72 139h60l73 -94h23l72 94h62z" />
    <glyph glyph-name="Omacron" unicode="&#x14c;" horiz-adv-x="709" 
d="M351 600q-110 0 -173 -94q-52 -80 -52 -177q0 -114 64.5 -192.5t157.5 -78.5q101 0 166 76t65 195q0 132 -78 212q-57 59 -150 59zM353 679q165 0 254 -119q74 -98 74 -229q0 -76 -26.5 -146t-71.5 -115q-91 -89 -232 -89q-66 0 -127 23.5t-100 63.5q-95 100 -95 262
q0 137 71 231q89 118 253 118zM240 735v79h229v-79h-229z" />
    <glyph glyph-name="omacron" unicode="&#x14d;" horiz-adv-x="539" 
d="M266 420q-67 0 -108 -50t-41 -131q0 -82 42 -132.5t110 -50.5t109 49t41 130q0 82 -42.5 133.5t-110.5 51.5zM260 494q112 0 183 -71t71 -182q0 -115 -68.5 -187.5t-177.5 -72.5q-105 0 -173.5 70.5t-68.5 179.5q0 120 63.5 191.5t170.5 71.5zM147 547v79h229v-79h-229z
" />
    <glyph glyph-name="Ohungarumlaut" unicode="&#x150;" horiz-adv-x="709" 
d="M351 600q-110 0 -173 -94q-52 -80 -52 -177q0 -114 64.5 -192.5t157.5 -78.5q101 0 166 76t65 195q0 132 -78 212q-57 59 -150 59zM353 679q165 0 254 -119q74 -98 74 -229q0 -76 -26.5 -146t-71.5 -115q-91 -89 -232 -89q-66 0 -127 23.5t-100 63.5q-95 100 -95 262
q0 137 71 231q89 118 253 118zM358 735v8l63 109h93v-11l-101 -106h-55zM195 735v8l63 109h93v-11l-100 -106h-56z" />
    <glyph glyph-name="ohungarumlaut" unicode="&#x151;" horiz-adv-x="539" 
d="M266 420q-67 0 -108 -50t-41 -131q0 -82 42 -132.5t110 -50.5t109 49t41 130q0 82 -42.5 133.5t-110.5 51.5zM260 494q112 0 183 -71t71 -182q0 -115 -68.5 -187.5t-177.5 -72.5q-105 0 -173.5 70.5t-68.5 179.5q0 120 63.5 191.5t170.5 71.5zM297 547v8l63 109h93v-11
l-101 -106h-55zM134 547v8l63 109h93v-11l-100 -106h-56z" />
    <glyph glyph-name="OE" unicode="&#x152;" horiz-adv-x="1046" 
d="M530 152v353q-73 93 -173 93q-101 0 -165.5 -75.5t-64.5 -193.5t64 -195t162 -77q102 0 177 95zM530 625v41h471v-137h-82v34q0 21 -40 21h-255v-196h335v-79h-335v-225h275q29 0 29 24v30h83v-138h-481v29q-54 -29 -89.5 -39.5t-83.5 -10.5q-68 0 -130 23.5t-104 64.5
q-44 44 -69.5 112.5t-25.5 144.5q0 79 27 150.5t73 117.5q40 40 98 63t120 23q79 0 184 -53z" />
    <glyph glyph-name="oe" unicode="&#x153;" horiz-adv-x="902" 
d="M503 283h271q-14 66 -41 99q-36 42 -96 42q-34 0 -63 -15.5t-44 -41.5q-16 -29 -27 -84zM267 420q-66 0 -107.5 -49.5t-41.5 -128.5q0 -84 41.5 -134.5t109.5 -50.5t109 48.5t41 128.5q0 83 -42.5 134.5t-109.5 51.5zM771 144h88q-16 -47 -30 -72t-36 -43
q-60 -50 -151 -50q-57 0 -98 20t-84 69q-49 -50 -89 -68t-101 -18q-110 0 -177.5 70t-67.5 183q0 56 19 108t52 87q62 62 164 62q74 0 143 -33q28 -13 61 -47q37 43 77.5 62t96.5 19q70 0 124.5 -35t83.5 -99q19 -44 22 -147h-362q7 -49 14 -71t22 -41q39 -48 107 -48
q43 0 70.5 20.5t51.5 71.5z" />
    <glyph glyph-name="Racute" unicode="&#x154;" horiz-adv-x="649" 
d="M180 584v-230h183q67 0 102.5 30.5t35.5 87.5q0 53 -30.5 82.5t-84.5 29.5h-206zM29 584v82h365q89 0 147 -51.5t58 -131.5q0 -63 -25.5 -100.5t-87.5 -68.5q43 -19 57.5 -35.5t19.5 -52.5l14 -105q5 -38 22 -38h38v-83h-81h-3q-43 0 -57 14.5t-15 60.5
q0 113 -25.5 157.5t-89.5 44.5h-186v-151q0 -28 5 -35.5t24 -7.5h28v-83h-208v83h37q14 0 17 8.5t3 50.5v410q0 32 -26 32h-31zM247 872h125l-127 -137h-72z" />
    <glyph glyph-name="racute" unicode="&#x155;" horiz-adv-x="349" 
d="M26 0v67h23q18 0 25.5 9t7.5 31v276q0 16 -6.5 22t-23.5 6h-26v69h144v-81q34 55 61.5 74t72.5 19q17 0 27 -1v-87q-26 3 -45 3q-52 0 -84 -38t-32 -100v-176q0 -11 6.5 -19t16.5 -8h31v-66h-198zM145 674h125l-127 -137h-72z" />
    <glyph glyph-name="Rcommaaccent" unicode="&#x156;" horiz-adv-x="649" 
d="M180 584v-230h183q67 0 102.5 30.5t35.5 87.5q0 53 -30.5 82.5t-84.5 29.5h-206zM29 584v82h365q89 0 147 -51.5t58 -131.5q0 -63 -25.5 -100.5t-87.5 -68.5q43 -19 57.5 -35.5t19.5 -52.5l14 -105q5 -38 22 -38h38v-83h-81h-3q-43 0 -57 14.5t-15 60.5
q0 113 -25.5 157.5t-89.5 44.5h-186v-151q0 -28 5 -35.5t24 -7.5h28v-83h-208v83h37q14 0 17 8.5t3 50.5v410q0 32 -26 32h-31zM275 -391v55q24 22 31 35.5t7 40.5v10h-38v103h99v-90q0 -112 -99 -154z" />
    <glyph glyph-name="rcommaaccent" unicode="&#x157;" horiz-adv-x="349" 
d="M26 0v67h23q18 0 25.5 9t7.5 31v276q0 16 -6.5 22t-23.5 6h-26v69h144v-81q34 55 61.5 74t72.5 19q17 0 27 -1v-87q-26 3 -45 3q-52 0 -84 -38t-32 -100v-176q0 -11 6.5 -19t16.5 -8h31v-66h-198zM78 -330v55q24 22 31 35.5t7 40.5v10h-38v103h99v-90q0 -112 -99 -154z
" />
    <glyph glyph-name="Rcaron" unicode="&#x158;" horiz-adv-x="649" 
d="M180 584v-230h183q67 0 102.5 30.5t35.5 87.5q0 53 -30.5 82.5t-84.5 29.5h-206zM29 584v82h365q89 0 147 -51.5t58 -131.5q0 -63 -25.5 -100.5t-87.5 -68.5q43 -19 57.5 -35.5t19.5 -52.5l14 -105q5 -38 22 -38h38v-83h-81h-3q-43 0 -57 14.5t-15 60.5
q0 113 -25.5 157.5t-89.5 44.5h-186v-151q0 -28 5 -35.5t24 -7.5h28v-83h-208v83h37q14 0 17 8.5t3 50.5v410q0 32 -26 32h-31zM403 874l-75 -139h-143l-72 139h60l73 -94h23l72 94h62z" />
    <glyph glyph-name="rcaron" unicode="&#x159;" horiz-adv-x="349" 
d="M26 0v67h23q18 0 25.5 9t7.5 31v276q0 16 -6.5 22t-23.5 6h-26v69h144v-81q34 55 61.5 74t72.5 19q17 0 27 -1v-87q-26 3 -45 3q-52 0 -84 -38t-32 -100v-176q0 -11 6.5 -19t16.5 -8h31v-66h-198zM319 668l-75 -139h-143l-72 139h60l73 -94h23l72 94h62z" />
    <glyph glyph-name="Sacute" unicode="&#x15a;" horiz-adv-x="595" 
d="M26 0v228h94q17 -87 48 -118q53 -51 139 -51q67 0 111 34t44 86q0 41 -27.5 66.5t-89.5 42.5l-121 33q-86 23 -123 65q-42 46 -42 111q0 46 22.5 86.5t57.5 60.5q61 33 157 33q46 0 80.5 -11.5t80.5 -42.5v43h84v-205h-89q-13 63 -38 90q-39 44 -132 44q-62 0 -95.5 -24
t-33.5 -68q0 -72 116 -101l92 -23q96 -23 140 -60q26 -23 41.5 -60t15.5 -77q0 -91 -66.5 -146.5t-174.5 -55.5q-56 0 -107 14q-44 12 -103 61v-55h-81zM301 872h125l-127 -137h-72z" />
    <glyph glyph-name="sacute" unicode="&#x15b;" horiz-adv-x="478" 
d="M24 0v158h89q11 -61 37.5 -83.5t87.5 -22.5q56 0 88.5 20.5t32.5 56.5q0 28 -21 44q-21 15 -98 32q-110 25 -155 57t-45 87q0 65 50.5 105.5t132.5 40.5q44 0 70.5 -8.5t65.5 -35.5v29h68v-146h-82q-14 54 -36.5 73t-73.5 19q-109 0 -109 -64q0 -46 85 -64
q110 -24 166 -50q71 -33 71 -115q0 -70 -58 -110t-158 -40q-48 0 -79.5 10.5t-63.5 38.5v-32h-65zM208 689h125l-127 -137h-72z" />
    <glyph glyph-name="Scedilla" unicode="&#x15e;" horiz-adv-x="595" 
d="M248 -101l12 85q-53 8 -80 21t-73 50v-55h-81v228h94q17 -87 48 -118q53 -51 139 -51q67 0 111 34t44 86q0 41 -27.5 66.5t-89.5 42.5l-121 33q-86 23 -123 65q-42 46 -42 111q0 46 22.5 86.5t57.5 60.5q61 33 157 33q46 0 80.5 -11.5t80.5 -42.5v43h84v-205h-89
q-13 63 -38 90q-39 44 -132 44q-62 0 -95.5 -24t-33.5 -68q0 -72 116 -101l92 -23q96 -23 140 -60q57 -50 57 -137q0 -94 -68.5 -148.5t-186.5 -53.5l-1 -33q38 -5 55.5 -22.5t17.5 -49.5q0 -38 -26 -58.5t-75 -20.5q-22 0 -54 9l5 47q41 -9 55 -9q19 0 31 8t12 22
q0 26 -54 26h-21z" />
    <glyph glyph-name="scedilla" unicode="&#x15f;" horiz-adv-x="478" 
d="M190 -101l11 85q-64 6 -112 48v-32h-65v158h89q11 -61 37.5 -83.5t87.5 -22.5q56 0 88.5 20.5t32.5 56.5q0 28 -21 44q-21 15 -98 32q-110 25 -155 57t-45 87q0 65 50.5 105.5t132.5 40.5q44 0 70.5 -8.5t65.5 -35.5v29h68v-146h-82q-14 54 -36.5 73t-73.5 19
q-109 0 -109 -64q0 -47 85 -64q111 -25 166 -50q71 -33 71 -115q0 -77 -72 -119q-48 -27 -131 -31l-1 -36q38 -5 55.5 -22.5t17.5 -49.5q0 -38 -26 -58.5t-75 -20.5q-23 0 -54 9l5 47q41 -9 54 -9q20 0 32 8t12 22q0 26 -54 26h-21z" />
    <glyph glyph-name="Scaron" unicode="&#x160;" horiz-adv-x="595" 
d="M26 0v228h94q17 -87 48 -118q53 -51 139 -51q67 0 111 34t44 86q0 41 -27.5 66.5t-89.5 42.5l-121 33q-86 23 -123 65q-42 46 -42 111q0 46 22.5 86.5t57.5 60.5q61 33 157 33q46 0 80.5 -11.5t80.5 -42.5v43h84v-205h-89q-13 63 -38 90q-39 44 -132 44q-62 0 -95.5 -24
t-33.5 -68q0 -72 116 -101l92 -23q96 -23 140 -60q26 -23 41.5 -60t15.5 -77q0 -91 -66.5 -146.5t-174.5 -55.5q-56 0 -107 14q-44 12 -103 61v-55h-81zM442 874l-75 -139h-143l-72 139h60l73 -94h23l72 94h62z" />
    <glyph glyph-name="scaron" unicode="&#x161;" horiz-adv-x="478" 
d="M24 0v158h89q11 -61 37.5 -83.5t87.5 -22.5q56 0 88.5 20.5t32.5 56.5q0 28 -21 44q-21 15 -98 32q-110 25 -155 57t-45 87q0 65 50.5 105.5t132.5 40.5q44 0 70.5 -8.5t65.5 -35.5v29h68v-146h-82q-14 54 -36.5 73t-73.5 19q-109 0 -109 -64q0 -46 85 -64
q110 -24 166 -50q71 -33 71 -115q0 -70 -58 -110t-158 -40q-48 0 -79.5 10.5t-63.5 38.5v-32h-65zM377 687l-75 -139h-143l-72 139h60l73 -94h23l72 94h62z" />
    <glyph glyph-name="Tcommaaccent" unicode="&#x162;" horiz-adv-x="557" 
d="M22 527v141h513v-140h-84v31q0 15 -6.5 20t-26.5 5h-90v-464q0 -26 2.5 -32t15.5 -6h36v-82h-206v82h32q13 0 17.5 8t4.5 34v460h-100q-25 0 -25 -25v-32h-83zM229 -341v55q24 22 31 35.5t7 40.5v10h-38v103h99v-90q0 -112 -99 -154z" />
    <glyph glyph-name="tcommaaccent" unicode="&#x163;" horiz-adv-x="279" 
d="M-1 411v72h73v151h91v-151h89v-72h-88v-289q0 -29 8.5 -40.5t30.5 -11.5h49v-70h-79q-53 0 -77 24.5t-24 78.5v308h-73zM66 -365v55q24 22 31 35.5t7 40.5v10h-38v103h99v-90q0 -112 -99 -154z" />
    <glyph glyph-name="Tcaron" unicode="&#x164;" horiz-adv-x="557" 
d="M22 527v141h513v-140h-84v31q0 15 -6.5 20t-26.5 5h-90v-464q0 -26 2.5 -32t15.5 -6h36v-82h-206v82h32q13 0 17.5 8t4.5 34v460h-100q-25 0 -25 -25v-32h-83zM423 874l-75 -139h-143l-72 139h60l73 -94h23l72 94h62z" />
    <glyph glyph-name="tcaron" unicode="&#x165;" horiz-adv-x="279" 
d="M-1 411v72h73v151h91v-151h89v-72h-88v-289q0 -29 8.5 -40.5t30.5 -11.5h49v-70h-79q-53 0 -77 24.5t-24 78.5v308h-73zM212 582v55q24 22 31 35.5t7 40.5v10h-38v103h99v-90q0 -112 -99 -154z" />
    <glyph glyph-name="Umacron" unicode="&#x16a;" horiz-adv-x="672" 
d="M22 666h206v-81h-29q-24 0 -24 -32v-309q0 -79 16 -111q16 -30 55.5 -48t90.5 -18q74 0 112.5 37.5t38.5 108.5v323q0 31 -5 39.5t-23 8.5h-27v82h206v-81h-29q-26 0 -26 -39v-338q0 -106 -66 -164.5t-186 -58.5q-149 0 -212 83q-42 56 -42 155v324q0 21 -7 29t-24 8h-25
v82zM222 735v79h229v-79h-229z" />
    <glyph glyph-name="umacron" unicode="&#x16b;" horiz-adv-x="581" 
d="M17 412v70h148v-330q0 -45 28 -71.5t76 -26.5q38 0 69.5 17t47.5 46q20 37 20 110v162q0 23 -29 23h-25v70h147v-387q0 -17 4.5 -22t20.5 -5h25v-68h-144v55q-70 -73 -159 -73q-58 0 -101 22.5t-59 62.5q-14 36 -14 84v237q0 14 -6.5 19t-23.5 5h-25zM165 545v79h229v-79
h-229z" />
    <glyph glyph-name="Uring" unicode="&#x16e;" horiz-adv-x="672" 
d="M22 666h206v-81h-29q-24 0 -24 -32v-309q0 -79 16 -111q16 -30 55.5 -48t90.5 -18q74 0 112.5 37.5t38.5 108.5v323q0 31 -5 39.5t-23 8.5h-27v82h206v-81h-29q-26 0 -26 -39v-338q0 -106 -66 -164.5t-186 -58.5q-149 0 -212 83q-42 56 -42 155v324q0 21 -7 29t-24 8h-25
v82zM337 865q-19 0 -33 -13t-14 -30q0 -19 15 -34.5t33 -15.5t31.5 14t13.5 33t-13.5 32.5t-32.5 13.5zM337 902q35 0 59 -24t24 -59q0 -34 -24.5 -59t-56.5 -25q-30 0 -58 28.5t-28 59.5q0 32 25 55.5t59 23.5z" />
    <glyph glyph-name="uring" unicode="&#x16f;" horiz-adv-x="581" 
d="M17 412v70h148v-330q0 -45 28 -71.5t76 -26.5q38 0 69.5 17t47.5 46q20 37 20 110v162q0 23 -29 23h-25v70h147v-387q0 -17 4.5 -22t20.5 -5h25v-68h-144v55q-70 -73 -159 -73q-58 0 -101 22.5t-59 62.5q-14 36 -14 84v237q0 14 -6.5 19t-23.5 5h-25zM280 667
q-19 0 -33 -13t-14 -30q0 -19 15 -34.5t33 -15.5t31.5 14t13.5 33t-13.5 32.5t-32.5 13.5zM280 704q34 0 58.5 -24t24.5 -59q0 -34 -24.5 -59t-56.5 -25q-30 0 -58 28.5t-28 59.5q0 32 25 55.5t59 23.5z" />
    <glyph glyph-name="Uhungarumlaut" unicode="&#x170;" horiz-adv-x="672" 
d="M22 666h206v-81h-29q-24 0 -24 -32v-309q0 -79 16 -111q16 -30 55.5 -48t90.5 -18q74 0 112.5 37.5t38.5 108.5v323q0 31 -5 39.5t-23 8.5h-27v82h206v-81h-29q-26 0 -26 -39v-338q0 -106 -66 -164.5t-186 -58.5q-149 0 -212 83q-42 56 -42 155v324q0 21 -7 29t-24 8h-25
v82zM340 735v8l63 109h93v-11l-101 -106h-55zM177 735v8l63 109h93v-11l-100 -106h-56z" />
    <glyph glyph-name="uhungarumlaut" unicode="&#x171;" horiz-adv-x="581" 
d="M17 412v70h148v-330q0 -45 28 -71.5t76 -26.5q38 0 69.5 17t47.5 46q20 37 20 110v162q0 23 -29 23h-25v70h147v-387q0 -17 4.5 -22t20.5 -5h25v-68h-144v55q-70 -73 -159 -73q-58 0 -101 22.5t-59 62.5q-14 36 -14 84v237q0 14 -6.5 19t-23.5 5h-25zM322 539v8l63 109
h93v-11l-101 -106h-55zM159 539v8l63 109h93v-11l-100 -106h-56z" />
    <glyph glyph-name="Uogonek" unicode="&#x172;" horiz-adv-x="672" 
d="M406 -103l5 -47q-32 -9 -54 -9q-49 0 -75 20.5t-26 58.5q0 48 46 66q-75 11 -115.5 29.5t-65.5 51.5q-43 58 -43 156v324q0 21 -7 29t-24 8h-25v82h206v-81h-29q-24 0 -24 -32v-309q0 -79 16 -111q16 -30 55.5 -48t90.5 -18q74 0 112.5 37.5t38.5 108.5v323q0 31 -5 39.5
t-23 8.5h-27v82h206v-81h-29q-26 0 -26 -39v-338q0 -87 -44 -143q-23 -30 -57.5 -47t-103.5 -33q-72 -16 -72 -61q0 -36 45 -36q11 0 54 9z" />
    <glyph glyph-name="uogonek" unicode="&#x173;" horiz-adv-x="581" 
d="M464 0h-59v55q-70 -73 -159 -73q-58 0 -101 22.5t-59 62.5q-14 36 -14 84v237q0 14 -6.5 19t-23.5 5h-25v70h148v-330q0 -45 28 -71.5t76 -26.5q38 0 69.5 17t47.5 46q20 37 20 110v162q0 23 -29 23h-25v70h147v-387q0 -17 4.5 -22t20.5 -5h25v-68h-19q-3 -1 -6.5 -3
t-6 -3t-3.5 -1q-29 -12 -36 -16t-13 -12q-10 -13 -10 -31q0 -36 45 -36q15 0 54 9l5 -47q-30 -9 -54 -9q-49 0 -75 20.5t-26 58.5q0 59 60 70z" />
    <glyph glyph-name="Ydieresis" unicode="&#x178;" horiz-adv-x="591" 
d="M9 584v82h218v-82h-34q-22 0 -22 -9q0 -5 9 -20l116 -186l112 185q2 4 4 6q7 10 7 16q0 8 -20 8h-32v82h213v-82h-25q-19 0 -27 -5.5t-22 -28.5l-163 -266v-175q0 -16 5 -21.5t19 -5.5h32v-82h-205v82h34q11 0 15.5 6.5t4.5 22.5v173l-171 276q-14 24 -32 24h-36z
M320 735v102h85v-102h-85zM184 735v102h85v-102h-85z" />
    <glyph glyph-name="Zacute" unicode="&#x179;" horiz-adv-x="563" 
d="M14 0v83l389 501h-262q-14 0 -18.5 -7t-4.5 -26v-24h-82v139h481v-77l-394 -508h306q28 0 28 32v23h81v-136h-524zM256 872h125l-127 -137h-72z" />
    <glyph glyph-name="zacute" unicode="&#x17a;" horiz-adv-x="455" 
d="M18 0v60l264 345h-155q-22 0 -22 -23v-37h-72v137h375v-51l-274 -355h194q16 0 22.5 6t6.5 21v34h70v-137h-409zM207 688h125l-127 -137h-72z" />
    <glyph glyph-name="Zdotaccent" unicode="&#x17b;" horiz-adv-x="563" 
d="M14 0v83l389 501h-262q-14 0 -18.5 -7t-4.5 -26v-24h-82v139h481v-77l-394 -508h306q28 0 28 32v23h81v-136h-524zM246 735v86h71v-86h-71z" />
    <glyph glyph-name="zdotaccent" unicode="&#x17c;" horiz-adv-x="455" 
d="M18 0v60l264 345h-155q-22 0 -22 -23v-37h-72v137h375v-51l-274 -355h194q16 0 22.5 6t6.5 21v34h70v-137h-409zM183 570v86h71v-86h-71z" />
    <glyph glyph-name="Zcaron" unicode="&#x17d;" horiz-adv-x="563" 
d="M14 0v83l389 501h-262q-14 0 -18.5 -7t-4.5 -26v-24h-82v139h481v-77l-394 -508h306q28 0 28 32v23h81v-136h-524zM426 874l-75 -139h-143l-72 139h60l73 -94h23l72 94h62z" />
    <glyph glyph-name="zcaron" unicode="&#x17e;" horiz-adv-x="455" 
d="M18 0v60l264 345h-155q-22 0 -22 -23v-37h-72v137h375v-51l-274 -355h194q16 0 22.5 6t6.5 21v34h70v-137h-409zM371 692l-75 -139h-143l-72 139h60l73 -94h23l72 94h62z" />
    <glyph glyph-name="florin" unicode="&#x192;" horiz-adv-x="600" 
d="M344 441l-81 -407q-17 -89 -124 -86h-3h-66l13 65h35q29 0 41.5 10t17.5 37l76 380h-62l13 65h62l17 86q15 89 124 86h3h66l-13 -65h-35q-29 0 -41.5 -10t-17.5 -37l-12 -59h85l-13 -65h-85z" />
    <glyph glyph-name="uni01D3" unicode="&#x1d3;" horiz-adv-x="672" 
d="M22 666h206v-81h-29q-24 0 -24 -32v-309q0 -79 16 -111q16 -30 55.5 -48t90.5 -18q74 0 112.5 37.5t38.5 108.5v323q0 31 -5 39.5t-23 8.5h-27v82h206v-81h-29q-26 0 -26 -39v-338q0 -106 -66 -164.5t-186 -58.5q-149 0 -212 83q-42 56 -42 155v324q0 21 -7 29t-24 8h-25
v82zM481 874l-75 -139h-143l-72 139h60l73 -94h23l72 94h62z" />
    <glyph glyph-name="Scommaaccent" unicode="&#x218;" horiz-adv-x="595" 
d="M26 0v228h94q17 -87 48 -118q53 -51 139 -51q67 0 111 34t44 86q0 41 -27.5 66.5t-89.5 42.5l-121 33q-86 23 -123 65q-42 46 -42 111q0 46 22.5 86.5t57.5 60.5q61 33 157 33q46 0 80.5 -11.5t80.5 -42.5v43h84v-205h-89q-13 63 -38 90q-39 44 -132 44q-62 0 -95.5 -24
t-33.5 -68q0 -72 116 -101l92 -23q96 -23 140 -60q26 -23 41.5 -60t15.5 -77q0 -91 -66.5 -146.5t-174.5 -55.5q-56 0 -107 14q-44 12 -103 61v-55h-81zM248 -352v55q24 22 31 35.5t7 40.5v10h-38v103h99v-90q0 -112 -99 -154z" />
    <glyph glyph-name="scommaaccent" unicode="&#x219;" horiz-adv-x="478" 
d="M24 0v158h89q11 -61 37.5 -83.5t87.5 -22.5q56 0 88.5 20.5t32.5 56.5q0 28 -21 44q-21 15 -98 32q-110 25 -155 57t-45 87q0 65 50.5 105.5t132.5 40.5q44 0 70.5 -8.5t65.5 -35.5v29h68v-146h-82q-14 54 -36.5 73t-73.5 19q-109 0 -109 -64q0 -46 85 -64
q110 -24 166 -50q71 -33 71 -115q0 -70 -58 -110t-158 -40q-48 0 -79.5 10.5t-63.5 38.5v-32h-65zM190 -365v55q24 22 31 35.5t7 40.5v10h-38v103h99v-90q0 -112 -99 -154z" />
    <glyph glyph-name="uni021A" unicode="&#x21a;" horiz-adv-x="557" 
d="M22 527v141h513v-140h-84v31q0 15 -6.5 20t-26.5 5h-90v-464q0 -26 2.5 -32t15.5 -6h36v-82h-206v82h32q13 0 17.5 8t4.5 34v460h-100q-25 0 -25 -25v-32h-83zM229 -341v55q24 22 31 35.5t7 40.5v10h-38v103h99v-90q0 -112 -99 -154z" />
    <glyph glyph-name="uni021B" unicode="&#x21b;" horiz-adv-x="279" 
d="M-1 411v72h73v151h91v-151h89v-72h-88v-289q0 -29 8.5 -40.5t30.5 -11.5h49v-70h-79q-53 0 -77 24.5t-24 78.5v308h-73zM66 -365v55q24 22 31 35.5t7 40.5v10h-38v103h99v-90q0 -112 -99 -154z" />
    <glyph glyph-name="circumflex" unicode="&#x2c6;" horiz-adv-x="357" 
d="M33 529l75 139h143l72 -139h-60l-73 94h-23l-72 -94h-62z" />
    <glyph glyph-name="caron" unicode="&#x2c7;" horiz-adv-x="357" 
d="M323 668l-75 -139h-143l-72 139h60l73 -94h23l72 94h62z" />
    <glyph glyph-name="uni02C9" unicode="&#x2c9;" horiz-adv-x="365" 
d="M68 666v79h229v-79h-229z" />
    <glyph glyph-name="breve" unicode="&#x2d8;" horiz-adv-x="403" 
d="M299 785h36q-22 -119 -136 -119q-58 0 -92.5 30.5t-41.5 88.5h37q19 -77 99 -77q41 0 64 18t34 59z" />
    <glyph glyph-name="dotaccent" unicode="&#x2d9;" horiz-adv-x="204" 
d="M66 666v86h71v-86h-71z" />
    <glyph glyph-name="ring" unicode="&#x2da;" horiz-adv-x="300" 
d="M151 795q-19 0 -33 -13t-14 -30q0 -19 15 -34.5t33 -15.5t31.5 14t13.5 33t-13.5 32.5t-32.5 13.5zM151 832q35 0 59 -24t24 -59q0 -34 -24.5 -59t-56.5 -25q-30 0 -58 28.5t-28 59.5q0 32 25 55.5t59 23.5z" />
    <glyph glyph-name="ogonek" unicode="&#x2db;" horiz-adv-x="221" 
d="M106 -33l59 1q-16 -8 -22 -10q-31 -13 -37 -16.5t-12 -11.5q-10 -11 -10 -31q0 -36 44 -36q14 0 55 9l5 -47q-32 -9 -54 -9q-49 0 -75 20.5t-26 58.5q0 32 17.5 49.5t55.5 22.5z" />
    <glyph glyph-name="tilde" unicode="&#x2dc;" horiz-adv-x="354" 
d="M82 542l-49 18q20 55 38 75.5t46 20.5q15 0 57 -17l33 -13q22 -8 32 -8q9 0 15.5 7t17.5 30l49 -19q-21 -57 -37.5 -77.5t-41.5 -20.5q-31 0 -91 28q-22 10 -35 10q-15 0 -34 -34z" />
    <glyph glyph-name="hungarumlaut" unicode="&#x2dd;" horiz-adv-x="451" 
d="M229 666v8l63 109h93v-11l-101 -106h-55zM66 666v8l63 109h93v-11l-100 -106h-56z" />
    <glyph glyph-name="uni0387" unicode="&#x387;" horiz-adv-x="366" 
d="M181 430q46 0 78 -31t32 -75q0 -47 -30.5 -78.5t-76.5 -31.5q-45 0 -77 31.5t-32 76.5t31 76.5t75 31.5z" />
    <glyph glyph-name="uni2011" unicode="&#x2011;" horiz-adv-x="365" 
d="M68 198v79h229v-79h-229z" />
    <glyph glyph-name="figuredash" unicode="&#x2012;" horiz-adv-x="652" 
d="M66 239v78h519v-78h-519z" />
    <glyph glyph-name="endash" unicode="&#x2013;" horiz-adv-x="652" 
d="M66 239v78h519v-78h-519z" />
    <glyph glyph-name="emdash" unicode="&#x2014;" horiz-adv-x="869" 
d="M68 239v78h733v-78h-733z" />
    <glyph glyph-name="afii00208" unicode="&#x2015;" horiz-adv-x="869" 
d="M68 239v78h733v-78h-733z" />
    <glyph glyph-name="quoteleft" unicode="&#x2018;" horiz-adv-x="235" 
d="M167 667v-54q-25 -23 -32 -36.5t-7 -41.5v-9h39v-103h-99v91q0 111 99 153z" />
    <glyph glyph-name="quoteright" unicode="&#x2019;" horiz-adv-x="235" 
d="M68 422v55q24 22 31 35.5t7 40.5v10h-38v103h99v-90q0 -112 -99 -154z" />
    <glyph glyph-name="quotesinglbase" unicode="&#x201a;" horiz-adv-x="235" 
d="M68 -363v55q3 2 28 31q10 14 10 45v10h-38v103h99v-90q0 -112 -99 -154z" />
    <glyph glyph-name="quotedblleft" unicode="&#x201c;" horiz-adv-x="397" 
d="M167 667v-54q-25 -23 -32 -36.5t-7 -40.5v-10h39v-103h-99v90q0 58 23.5 95t75.5 59zM329 668v-54q-25 -22 -32 -36.5t-7 -40.5v-10h39v-103h-99v90q0 58 23.5 95t75.5 59z" />
    <glyph glyph-name="quotedblright" unicode="&#x201d;" horiz-adv-x="397" 
d="M230 424v55q25 22 32 36t7 40v10h-38v103h98v-90q0 -112 -99 -154zM68 422v55q24 22 31 35.5t7 40.5v10h-38v103h99v-90q0 -112 -99 -154z" />
    <glyph glyph-name="quotedblbase" unicode="&#x201e;" horiz-adv-x="397" 
d="M230 -140v54q25 23 32 37t7 40v9h-38v103h98v-90q0 -112 -99 -153zM68 -141v54q24 23 31 36.5t7 40.5v10h-38v103h99v-91q0 -58 -23.5 -94t-75.5 -59z" />
    <glyph glyph-name="dagger" unicode="&#x2020;" horiz-adv-x="511" 
d="M480 464v-72h-184v-530h-81v530h-183v72h183v202h81v-202h184z" />
    <glyph glyph-name="daggerdbl" unicode="&#x2021;" horiz-adv-x="511" 
d="M479 486v-71h-183v-301h183v-71h-183v-181h-81v181h-183v70h183v302h-183v71h183v180h81v-180h183z" />
    <glyph glyph-name="bullet" unicode="&#x2022;" horiz-adv-x="340" 
d="M169 422q35 0 60 -24.5t25 -59.5q0 -34 -25 -59t-59 -25q-35 0 -59.5 24.5t-24.5 59.5t24.5 59.5t58.5 24.5z" />
    <glyph glyph-name="ellipsis" unicode="&#x2026;" horiz-adv-x="636" 
d="M470 0v103h98v-103h-98zM269 0v103h98v-103h-98zM68 0v103h98v-103h-98z" />
    <glyph glyph-name="perthousand" unicode="&#x2030;" horiz-adv-x="1058" 
d="M884 324q-80 0 -80 -142q0 -148 77 -148q41 0 60 33t19 106q0 81 -17.5 116t-58.5 35zM547 324q-41 0 -60 -39q-20 -38 -20 -103q0 -72 22 -116q17 -32 57 -32q41 0 59 34t18 110q0 77 -18 111.5t-58 34.5zM178 619q-79 0 -79 -145q0 -143 78 -143q40 0 59 36.5t19 114.5
q0 71 -18.5 104t-58.5 33zM880 378q145 0 145 -202q0 -93 -37 -143.5t-105 -50.5t-106 51.5t-38 144.5t37.5 146.5t103.5 53.5zM543 378q145 0 145 -203q0 -92 -37 -142.5t-104 -50.5q-69 0 -107 51.5t-38 143.5q0 94 37.5 147.5t103.5 53.5zM201 0l264 666h58l-264 -666
h-58zM173 673q71 0 109 -50t38 -143q0 -96 -37.5 -149t-105.5 -53t-106 52t-38 144q0 93 37.5 146t102.5 53z" />
    <glyph glyph-name="guilsinglleft" unicode="&#x2039;" horiz-adv-x="232" 
d="M126 397h64l-86 -194l86 -190h-63l-86 190z" />
    <glyph glyph-name="guilsinglright" unicode="&#x203a;" horiz-adv-x="232" 
d="M105 397l86 -194l-86 -190h-63l86 190l-86 194h63z" />
    <glyph glyph-name="uni203E" unicode="&#x203e;" horiz-adv-x="323" 
d="M289 715v-48h-256v48h256z" />
    <glyph glyph-name="fraction" unicode="&#x2044;" horiz-adv-x="178" 
d="M311 657l-390 -657h-54l391 657h53z" />
    <glyph glyph-name="Euro" unicode="&#x20ac;" horiz-adv-x="600" 
d="M389 223h-150q23 -76 70.5 -118.5t106.5 -42.5q30 0 88 20l31 -72q-76 -22 -129 -25q-66 -3 -132 37.5t-101 105.5q-23 44 -37 95h-72l21 62h40q-2 36 -2 44q0 13 1 21h-62l21 62h48q14 71 41 117q37 66 106 107.5t143 41.5q40 0 114 -19l-31 -73q-45 12 -73 12
q-51 0 -98 -29t-73 -76q-18 -37 -28 -81h212l-21 -62h-199q-1 -7 -1 -19q0 -19 3 -46h184z" />
    <glyph glyph-name="trademark" unicode="&#x2122;" horiz-adv-x="855" 
d="M335 666v-52h-130v-347h-63v347h-132v52h325zM805 666v-399h-56v340l-138 -341h-36l-134 341v-340h-58v399h91l118 -290l124 290h89z" />
    <glyph glyph-name="partialdiff" unicode="&#x2202;" 
d="M245 373q-65 0 -109.5 -47t-44.5 -114t44.5 -114t106.5 -47q64 0 107.5 47.5t43.5 116.5q0 68 -42 113t-106 45zM94 633l16 43q71 -6 115 -27q40 -18 82.5 -49.5t64.5 -60.5q92 -120 92 -274q0 -127 -60.5 -201.5t-161.5 -74.5q-93 0 -157 64.5t-64 158.5t63.5 159
t154.5 65q41 0 73 -14t73 -50q-17 112 -92.5 180t-198.5 81z" />
    <glyph glyph-name="Delta" unicode="&#x2206;" horiz-adv-x="666" 
d="M103 60h458l-231 536zM4 0l281 666h90l287 -666h-658z" />
    <glyph glyph-name="product" unicode="&#x220f;" horiz-adv-x="666" 
d="M0 750h668v-53h-91v-893h90v-54h-252v53h93v893h-349v-892h92v-54h-251v53h91v893h-91v54z" />
    <glyph glyph-name="summation" unicode="&#x2211;" horiz-adv-x="666" 
d="M602 750v-226h-57l-8 172h-430l255 -425l-258 -467h444l5 173h58v-227h-588v58l260 465l-260 420v57h579z" />
    <glyph glyph-name="minus" unicode="&#x2212;" 
d="M9 374h481v-65h-481v65z" />
    <glyph glyph-name="radical" unicode="&#x221a;" horiz-adv-x="666" 
d="M637 788v-53h-142l-287 -749l-108 318h-71v53h114l68 -221l238 652h188z" />
    <glyph glyph-name="infinity" unicode="&#x221e;" horiz-adv-x="666" 
d="M293 336q-43 52 -74.5 72.5t-67.5 20.5q-41 0 -66 -25.5t-25 -67.5q0 -41 24.5 -67t64.5 -26q37 0 69.5 21t74.5 72zM373 336q41 -50 74 -71.5t70 -21.5q40 0 64.5 25t24.5 66q0 43 -25 69t-67 26q-37 0 -66.5 -19.5t-74.5 -73.5zM333 385q46 58 87.5 82.5t93.5 24.5
q70 0 112.5 -42.5t42.5 -111.5q0 -70 -42 -114.5t-109 -44.5q-50 0 -93.5 25t-91.5 83q-47 -58 -89 -83t-92 -25q-68 0 -111 43.5t-43 113.5q0 68 43.5 112t110.5 44q50 0 91 -24.5t90 -82.5z" />
    <glyph glyph-name="integral" unicode="&#x222b;" 
d="M425 606h-58l-1 13v7q0 50 -8.5 68t-32.5 18q-23 0 -31 -18.5t-8 -73.5v-37v-653v-42q0 -138 -104 -138q-55 0 -79 35.5t-28 120.5h61v-9v-15q0 -52 10.5 -73t35.5 -21q26 0 33 21.5t7 97.5v643q0 114 15 146q27 54 89 54q51 0 71.5 -30t27.5 -114z" />
    <glyph glyph-name="approxequal" unicode="&#x2248;" 
d="M454 341l39 -38q-38 -65 -67.5 -90.5t-66.5 -25.5q-18 0 -37 6.5t-75 31.5l-45 20q-37 17 -64 17q-24 0 -44 -19t-50 -71l-38 39q39 65 68 90t66 25q34 0 124 -41l49 -22q27 -12 46 -12q25 0 46.5 20t48.5 70zM454 518l39 -38q-38 -65 -67.5 -90.5t-65.5 -25.5
q-29 0 -113 38l-45 20q-37 17 -64 17q-24 0 -44 -19t-50 -70l-38 38q39 65 68 90t65 25q29 0 125 -41l49 -21q29 -13 46 -13q25 0 46.5 20.5t48.5 69.5z" />
    <glyph glyph-name="notequal" unicode="&#x2260;" 
d="M273 449l61 122l59 -24l-49 -98h149v-63h-180l-53 -105h233v-63h-264l-67 -134l-58 24l54 110h-152v63h184l52 104h-235v64h266z" />
    <glyph glyph-name="lessequal" unicode="&#x2264;" 
d="M490 105v-75h-481v75h481zM490 610v-70l-397 -172l397 -168v-70l-481 202v71z" />
    <glyph glyph-name="greaterequal" unicode="&#x2265;" 
d="M490 105v-75h-481v75h481zM9 129v71l397 172l-397 168v70l481 -202v-71z" />
    <glyph glyph-name="dotmath" unicode="&#x22c5;" horiz-adv-x="366" 
d="M181 430q46 0 78 -31t32 -75q0 -47 -30.5 -78.5t-76.5 -31.5q-45 0 -77 31.5t-32 76.5t31 76.5t75 31.5z" />
    <glyph glyph-name="lozenge" unicode="&#x25ca;" horiz-adv-x="666" 
d="M332 586l-175 -252l175 -251l178 251zM332 681l253 -347l-253 -349l-251 349z" />
    <glyph glyph-name="commaaccent" unicode="&#xf6c3;" horiz-adv-x="235" 
d="M68 -365v55q24 22 31 35.5t7 40.5v10h-38v103h99v-90q0 -112 -99 -154z" />
    <glyph glyph-name="Acute" unicode="&#xf6c9;" horiz-adv-x="266" 
d="M107 872h125l-127 -137h-72z" />
    <glyph glyph-name="Caron" unicode="&#xf6ca;" horiz-adv-x="357" 
d="M323 874l-75 -139h-143l-72 139h60l73 -94h23l72 94h62z" />
    <glyph glyph-name="Dieresis" unicode="&#xf6cb;" horiz-adv-x="287" 
d="M169 735v102h85v-102h-85zM33 735v102h85v-102h-85z" />
    <glyph glyph-name="Grave" unicode="&#xf6ce;" horiz-adv-x="257" 
d="M33 875h119l72 -140h-70z" />
    <glyph glyph-name="Hungarumlaut" unicode="&#xf6cf;" horiz-adv-x="451" 
d="M229 735v8l63 109h93v-11l-101 -106h-55zM66 735v8l63 109h93v-11l-100 -106h-56z" />
    <glyph glyph-name="Macron" unicode="&#xf6d0;" horiz-adv-x="365" 
d="M68 735v79h229v-79h-229z" />
    <glyph glyph-name="Dotaccent" horiz-adv-x="204" 
d="M66 735v86h71v-86h-71z" />
    <glyph glyph-name="Ring" horiz-adv-x="300" 
d="M151 865q-19 0 -33 -13t-14 -30q0 -19 15 -34.5t33 -15.5t31.5 14t13.5 33t-13.5 32.5t-32.5 13.5zM151 902q35 0 59 -24t24 -59q0 -34 -24.5 -59t-56.5 -25q-30 0 -58 28.5t-28 59.5q0 32 25 55.5t59 23.5z" />
    <glyph glyph-name="Circumflex" horiz-adv-x="357" 
d="M33 735l75 139h143l72 -139h-60l-73 94h-23l-72 -94h-62z" />
    <glyph glyph-name="Breve" horiz-adv-x="403" 
d="M299 854h36q-22 -119 -136 -119q-58 0 -92.5 30.5t-41.5 88.5h37q19 -77 99 -77q41 0 64 18t34 59z" />
    <glyph glyph-name="Tilde" horiz-adv-x="354" 
d="M82 736l-49 18q20 55 38 75.5t46 20.5q13 0 57 -17l33 -13q22 -8 32 -8q9 0 15.5 7t17.5 30l49 -19q-21 -57 -37.5 -77.5t-41.5 -20.5q-31 0 -91 28q-22 10 -35 10q-14 0 -34 -34z" />
    <glyph glyph-name="Cedilla" horiz-adv-x="221" 
d="M33 -195l5 47q40 -9 55 -9q19 0 31 8t12 22q0 26 -54 26h-21l15 109h41l-2 -61q38 -5 55.5 -22.5t17.5 -49.5q0 -38 -26 -58.5t-75 -20.5q-22 0 -54 9z" />
    <glyph glyph-name="Ogonek" horiz-adv-x="221" 
d="M106 -33l59 1q-16 -8 -22 -10q-31 -13 -37 -16.5t-12 -11.5q-10 -11 -10 -31q0 -36 44 -36q14 0 55 9l5 -47q-32 -9 -54 -9q-49 0 -75 20.5t-26 58.5q0 32 17.5 49.5t55.5 22.5z" />
    <glyph glyph-name="commaaccent.sc" horiz-adv-x="235" 
d="M68 -391v55q24 22 31 35.5t7 40.5v10h-38v103h99v-90q0 -112 -99 -154z" />
    <glyph glyph-name="Comma.high" horiz-adv-x="235" 
d="M68 422v55q24 22 31 35.5t7 40.5v10h-38v103h99v-90q0 -112 -99 -154z" />
    <glyph glyph-name="comma.high" horiz-adv-x="235" 
d="M68 422v55q24 22 31 35.5t7 40.5v10h-38v103h99v-90q0 -112 -99 -154z" />
    <glyph glyph-name="commareversed" horiz-adv-x="235" 
d="M167 876v-55q-24 -22 -31 -35.5t-7 -40.5v-10h38v-103h-99v90q0 112 99 154z" />
    </font>
</defs>
</svg>
